<svg width="28" height="24" viewBox="0 0 28 24" fill="none" xmlns="http://www.w3.org/2000/svg">
    <path d="M8.743 13.195l.468 2.175h14.275v.075c.314-.005.602.274.602.58 0 .308-.288.586-.601.582L8.743 13.195zm0 0h15.93a.685.685 0 00.647-.512l-16.577.512zm-.073 3.487h14.816L5.992.787a.61.61 0 00-.583-.454V.258h0-4.15a.662.662 0 00-.667.657c0 .363.3.656.667.656h3.607l3.106 14.405a.65.65 0 00.194.496.672.672 0 00.504.21zm-.21-4.8L6.864 4.477H25.91l-1.77 7.405H8.46zm3.172 5.812c-1.506 0-2.742 1.21-2.742 2.69 0 1.481 1.236 2.691 2.742 2.691s2.742-1.21 2.742-2.69-1.236-2.69-2.742-2.69zm8.891 0c-1.506 0-2.742 1.21-2.742 2.69 0 1.481 1.236 2.691 2.742 2.691s2.742-1.21 2.742-2.69-1.236-2.69-2.742-2.69zm-8.89 1.313c.785 0 1.406.611 1.406 1.378 0 .766-.621 1.378-1.407 1.378-.785 0-1.407-.612-1.407-1.378 0-.767.622-1.378 1.407-1.378zm8.89 0c.786 0 1.407.611 1.407 1.378 0 .766-.621 1.378-1.407 1.378-.785 0-1.407-.612-1.407-1.378 0-.767.622-1.378 1.407-1.378z" fill="#22C6B6" stroke="#22C6B6" stroke-width=".15"/>
</svg>
