<svg width="24" height="22" viewBox="0 0 24 22" fill="none" xmlns="http://www.w3.org/2000/svg">
    <path d="M23.296.728h-4.321c-.825 0-1.647.621-1.871 1.415l-1.167 4.132a1.563 1.563 0 00-.42-.059H1.554c-.445 0-.867.184-1.158.506a1.56 1.56 0 00-.39 1.201l.652 6.6c.087.88.847 1.569 1.731 1.569h10.836c.829 0 1.647-.626 1.863-1.426l1.358-5.02 2.012-7.12c.054-.194.315-.39.516-.39h4.321a.704.704 0 100-1.408zm-9.566 13.57c-.051.192-.306.386-.504.386H2.39a.358.358 0 01-.33-.299l-.651-6.6c-.005-.05.006-.09.031-.118.026-.028.065-.043.115-.043H15.534a.283.283 0 01-.004.018l-1.8 6.657zM4.444 16.894c-1.207 0-2.189.982-2.189 2.19 0 1.206.982 2.188 2.19 2.188 1.207 0 2.189-.982 2.189-2.189s-.982-2.19-2.19-2.19zm0 2.97a.783.783 0 010-1.563.782.782 0 010 1.564zM11.387 16.894c-1.208 0-2.19.982-2.19 2.19 0 1.206.982 2.188 2.19 2.188 1.207 0 2.189-.982 2.189-2.189s-.982-2.19-2.19-2.19zm0 2.97a.782.782 0 11.001-1.564.782.782 0 01-.001 1.565z" fill="#000002"/>
</svg>
