<svg width="27" height="24" viewBox="0 0 27 24" fill="none" xmlns="http://www.w3.org/2000/svg">
    <path d="M25.014 9.292l-1.67.217V8.064a4.076 4.076 0 003.29-3.995A4.074 4.074 0 0022.563 0a4.074 4.074 0 00-4.07 4.07 4.076 4.076 0 003.29 3.994v1.649L4.85 11.92v-1.17a4.076 4.076 0 003.289-3.994 4.074 4.074 0 00-4.07-4.07A4.074 4.074 0 000 6.757a4.076 4.076 0 003.29 3.995v1.373l-1.816.236a.78.78 0 10.202 1.547l10.553-1.375L9.94 22.44h-.71a.78.78 0 100 1.56h8.178a.78.78 0 100-1.56h-.72l-2.485-10.166 11.012-1.435a.78.78 0 10-.201-1.547zM1.56 6.756a2.512 2.512 0 012.51-2.509 2.512 2.512 0 012.509 2.51 2.512 2.512 0 01-2.51 2.509 2.512 2.512 0 01-2.509-2.51zM15.082 22.44h-3.54l1.72-7.447 1.82 7.447zm4.973-18.37a2.512 2.512 0 012.509-2.51 2.512 2.512 0 012.509 2.51 2.512 2.512 0 01-2.51 2.509 2.512 2.512 0 01-2.508-2.51z" fill="#1D1D1B"/>
</svg>
