<svg width="14" height="16" viewBox="0 0 14 16" fill="none" xmlns="http://www.w3.org/2000/svg">
    <path d="M13.716 7.219c0-.775-.63-1.406-1.406-1.406h-.338l.574-2.14a.47.47 0 00-.017-.293l-.922-2.35a.469.469 0 00-.729-.195L8.904 2.409a.468.468 0 00-.16.245l-.847 3.159H6.838L3.863.66a1.312 1.312 0 00-.84-.621 1.407 1.407 0 00-1.035.153 1.388 1.388 0 00-.681 1.463l-.76.439a.469.469 0 00-.172.64l1.158 2.005a.469.469 0 10.812-.469l-.923-1.599.294-.17.29.505h.001l1.62 2.807h-.194c-.776 0-1.406.63-1.406 1.406 0 .754.597 1.372 1.343 1.405v5.093C3.37 14.976 4.436 16 5.745 16h4.253c1.31 0 2.375-1.024 2.375-2.283V8.624a1.408 1.408 0 001.343-1.405zm-2.75-5.255l.634 1.615-.04.153-1.992-.534.041-.152 1.357-1.082zm-1.64 2.14l1.99.533-.314 1.176H8.868l.458-1.709zm-6.87-3.1A.473.473 0 012.804.95c.108.026.196.09.248.179l.317.55-.785.452-.317-.55c-.11-.19-.023-.455.19-.578zm.597 1.939l.784-.453 1.919 3.323H4.71l-1.657-2.87zm8.382 10.774c0 .742-.645 1.345-1.437 1.345H5.745c-.792 0-1.437-.603-1.437-1.345V8.625h7.127v5.092zm.875-6.03H3.433a.47.47 0 010-.937H12.31a.47.47 0 010 .938z" fill="#1D1D1B"/>
</svg>
