<svg width="24" height="20" viewBox="0 0 24 20" fill="none" xmlns="http://www.w3.org/2000/svg">
    <path d="M23.989 6.534a6.776 6.776 0 00-2.017-4.473C20.744.851 19.14.184 17.457.184c-2.522 0-4.307 1.948-5.266 2.994l-.17.185-.09-.103C11.053 2.262 9.228.184 6.543.184c-1.684 0-3.288.667-4.516 1.877A6.776 6.776 0 00.012 6.534c-.09 1.681.337 3.14 1.386 4.731.939 1.426 3.386 3.68 5.195 5.177 1.86 1.54 4.31 3.374 5.418 3.374 1.125 0 3.566-1.83 5.415-3.366 1.796-1.491 4.229-3.744 5.177-5.186.706-1.072 1.5-2.58 1.386-4.73zm-2.592 3.937c-.69 1.048-2.631 2.984-4.833 4.818-2.625 2.186-4.18 3.048-4.552 3.082-.373-.038-1.93-.909-4.569-3.1-2.214-1.839-4.16-3.768-4.84-4.8-.867-1.317-1.222-2.507-1.15-3.86.148-2.748 2.431-4.983 5.09-4.983 2.032 0 3.509 1.682 4.302 2.585.466.531.723.824 1.155.824.446 0 .734-.314 1.256-.883.865-.945 2.315-2.526 4.2-2.526 2.66 0 4.944 2.235 5.09 4.983.074 1.368-.27 2.523-1.15 3.86z" fill="#1D1D1B"/>
</svg>
