<svg width="24" height="24" viewBox="0 0 24 24" fill="none" xmlns="http://www.w3.org/2000/svg">
    <path d="M17.229 0C15.186 0 13.273.97 12 2.593 10.727.969 8.814 0 6.771 0 3.038 0 0 3.182 0 7.094c0 3.062 1.743 6.605 5.181 10.53 2.646 3.02 5.525 5.357 6.344 6.002L12 24l.475-.374c.82-.645 3.698-2.983 6.344-6.003C22.256 13.7 24 10.156 24 7.093 24 3.184 20.962 0 17.229 0zm.424 16.502c-2.177 2.484-4.518 4.492-5.653 5.417-1.135-.925-3.477-2.933-5.653-5.417-3.117-3.557-4.765-6.811-4.765-9.408 0-2.998 2.328-5.436 5.19-5.436 1.882 0 3.62 1.075 4.536 2.805L12 5.771l.692-1.308c.916-1.73 2.654-2.805 4.537-2.805 2.861 0 5.189 2.438 5.189 5.436 0 2.597-1.648 5.85-4.765 9.408z" fill="#22C6B6"/>
</svg>
