<svg width="18" height="16" viewBox="0 0 18 16" fill="none" xmlns="http://www.w3.org/2000/svg">
    <path d="M9.124 2.736l.111.347h5.598a2 2 0 012 2v8.334a2 2 0 01-2 2H3.167a2 2 0 01-1.414-.586l-.354.353.354-.353a2 2 0 01-.586-1.414V2.583a2 2 0 012-2H6.969a2 2 0 011.159.365L8.416.54l-.288.41a2 2 0 01.732.961l.264.826zm-.89-.576h0l-1.267-.91h0-3.8a1.333 1.333 0 00-1.334 1.333v10.834a1.333 1.333 0 001.334 1.333h11.666a1.333 1.333 0 001.334-1.333V5.083a1.333 1.333 0 00-1.334-1.333H9a.333.333 0 01-.316-.225v-.002l-.45-1.363z" fill="#000" stroke="#fff"/>
</svg>
