<svg width="68" height="24" viewBox="0 0 64 24" fill="none" xmlns="http://www.w3.org/2000/svg">
    <path d="M13.191 14.284H4.754V23H.359V1.672h13.887v3.56H4.754v5.507h8.437v3.545zM20.984 23h-4.248V7.15h4.248V23zM16.487 3.049c0-.635.21-1.157.63-1.568.43-.41 1.01-.615 1.743-.615.723 0 1.3.205 1.729.615.43.41.644.933.644 1.568 0 .644-.22 1.172-.659 1.582-.43.41-1 .615-1.714.615-.712 0-1.289-.205-1.728-.615-.43-.41-.645-.938-.645-1.582zM28.953 23h-4.248V.5h4.248V23zm7.47-15.85l.133 1.773c1.123-1.377 2.641-2.066 4.555-2.066 2.041 0 3.443.806 4.204 2.417 1.114-1.61 2.7-2.417 4.761-2.417 1.719 0 2.998.503 3.838 1.51.84.995 1.26 2.5 1.26 4.51V23h-4.248V12.893c0-.899-.176-1.553-.528-1.963-.351-.42-.971-.63-1.86-.63-1.27 0-2.148.605-2.637 1.816L45.916 23h-4.233V12.907c0-.918-.181-1.582-.542-1.992-.362-.41-.977-.615-1.846-.615-1.201 0-2.07.498-2.608 1.494V23h-4.233V7.15h3.97zM58.66 20.92c0-.674.225-1.22.674-1.64.459-.42 1.03-.63 1.714-.63.693 0 1.264.21 1.714.63.459.42.688.966.688 1.64 0 .664-.224 1.206-.674 1.626-.449.41-1.025.615-1.728.615-.694 0-1.265-.205-1.714-.615-.45-.42-.674-.962-.674-1.626z" fill="#5671F6"/>
</svg>
