<svg width="136" height="24" viewBox="0 0 136 24" fill="none" xmlns="http://www.w3.org/2000/svg">
    <path d="M110.226 13.207V8.708l.107-.088c.41-.341.805-.597 1.183-.769a2.726 2.726 0 011.125-.265c.327 0 .629.09.909.27.269.174.514.431.729.77.212.337.37.758.474 1.264.101.49.151 1.061.151 1.712 0 .703-.059 1.32-.175 1.854-.119.548-.3 1.004-.544 1.368-.245.369-.523.647-.835.835-.318.19-.667.285-1.048.285a2.28 2.28 0 01-.6-.078 2.01 2.01 0 01-.537-.232 1.922 1.922 0 01-.439-.364 1.665 1.665 0 01-.298-.476l-.001-.003a2.673 2.673 0 01-.154-.666 7.654 7.654 0 01-.047-.918zm-.463-7.036V4.982h-.854c-.313.145-.624.274-.933.388-.32.118-.644.222-.971.31-.328.087-.682.166-1.064.237-.32.06-.66.115-1.022.166V8.12h1.851v12.259c0 .252-.01.465-.028.637a1.512 1.512 0 01-.108.454.988.988 0 01-.173.267.721.721 0 01-.252.178c-.085.036-.227.06-.427.074-.185.012-.421.019-.706.019h-.157V24h7.208v-1.993h-.323c-.261 0-.477-.007-.647-.022a1.328 1.328 0 01-.416-.088.818.818 0 01-.415-.427h-.001a1.433 1.433 0 01-.08-.43 9.045 9.045 0 01-.019-.662V17.15l.406.3c.238.173.467.322.69.444.217.12.424.212.619.274h.001c.193.064.409.111.645.144.236.033.49.049.763.049.838 0 1.589-.18 2.254-.541.663-.361 1.244-.903 1.74-1.627h.001c.437-.63.765-1.339.983-2.123.218-.79.329-1.66.329-2.612 0-.993-.126-1.894-.376-2.701a6.593 6.593 0 00-1.124-2.152c-.43-.541-.923-.948-1.478-1.218-.556-.27-1.18-.405-1.871-.405-.273 0-.538.022-.792.065-.255.043-.5.108-.735.193h-.001a6.39 6.39 0 00-.884.422c-.359.2-.77.453-1.236.76l-.397.263V6.17zm-12.587 6.27c.393-.087.858-.174 1.395-.258l.3-.046v2.842l-.13.085c-.228.15-.448.281-.658.397-.21.115-.41.212-.597.29-.192.081-.374.143-.546.184a2.135 2.135 0 01-.498.064c-.235 0-.45-.036-.643-.105a1.507 1.507 0 01-.532-.325l-.002-.003a1.483 1.483 0 01-.466-1.119c0-.172.03-.343.092-.514.06-.162.144-.321.256-.476.113-.156.262-.298.447-.424.175-.12.386-.227.627-.32v-.002c.233-.088.552-.18.955-.27zm1.695-3.171V10.53l-.245.02c-.743.061-1.43.143-2.062.245a15.71 15.71 0 00-1.718.367 10.4 10.4 0 00-1.332.451 4.557 4.557 0 00-.913.502 3.82 3.82 0 00-.614.567 3.1 3.1 0 00-.43.64h-.002a3.103 3.103 0 00-.26.718 3.392 3.392 0 00-.087.78c0 .485.084.928.25 1.33.166.405.419.773.756 1.103.339.333.732.583 1.177.75.45.168.958.253 1.523.253.302 0 .608-.03.918-.088.313-.06.633-.148.958-.267h.002a7.266 7.266 0 001.036-.474c.37-.203.757-.447 1.162-.73l.203-.142.145.212c.17.246.36.462.568.648.21.186.441.342.689.466h.002c.247.124.523.218.824.28a5.455 5.455 0 001.969.01 6.37 6.37 0 00.813-.201v-1.995a3.633 3.633 0 01-.204.053 2.11 2.11 0 01-.467.06 1.41 1.41 0 01-.401-.056 1.322 1.322 0 01-.363-.17 1.335 1.335 0 01-.292-.25c-.086-.1-.151-.21-.194-.326a2.006 2.006 0 01-.085-.49 10.138 10.138 0 01-.023-.746V9.27c0-.552-.037-1.03-.113-1.431-.072-.389-.179-.708-.321-.956h.001a2.735 2.735 0 00-.603-.7 4.796 4.796 0 00-.976-.624l-.002-.001a5.196 5.196 0 00-1.28-.431 7.78 7.78 0 00-1.554-.145 8.59 8.59 0 00-1.597.143c-.5.094-.972.237-1.418.426-.445.189-.83.403-1.16.642a3.784 3.784 0 00-.807.78h-.001a2.26 2.26 0 00-.46 1.399 1.52 1.52 0 00.427 1.109c.144.152.307.266.49.341.188.078.398.116.633.116.188 0 .36-.027.519-.079a1.5 1.5 0 00.438-.23c.13-.103.254-.24.37-.412.12-.179.234-.397.338-.654.09-.225.175-.416.257-.573.086-.166.17-.297.252-.394l.002-.003a1.61 1.61 0 01.282-.25c.101-.07.216-.134.343-.191l.005-.002a2.068 2.068 0 01.84-.166c.195 0 .378.021.548.064.174.042.332.108.475.196.14.086.26.184.36.296.105.115.187.245.247.389l.002.006c.057.14.097.326.124.557.024.215.036.474.036.778zm-9.295-7.277V0H70.062v1.993h.51c.29 0 .537.027.736.082.23.063.403.167.52.313v-.001c.113.14.195.363.244.667.045.27.067.61.067 1.02v10.122c0 .34-.023.626-.068.858-.05.261-.13.463-.243.601-.119.148-.312.254-.576.317-.23.054-.523.082-.88.082h-.31v1.988h7.7V15.82h-3.256v-.283c0-1.42 1.24-3.022 2.103-3.793.13-.115.236-.261.313-.433.08-.174.13-.375.151-.599l.207-4.235c.1-1.09-.719-1.474-1.438-1.812l-.15-.07h-.001a.726.726 0 01-.32-.305.924.924 0 01-.118-.458V3h9.075v.833a.924.924 0 01-.117.458.729.729 0 01-.32.303h-.002l-.15.072c-.72.338-1.537.721-1.438 1.812l.207 4.234c.021.224.072.425.151.6.077.17.182.315.314.432.862.772 2.08 2.362 2.102 3.793v.283H81.85v2.223h7.725v-1.988h-.232c-.374 0-.682-.025-.925-.074-.275-.056-.473-.151-.596-.283-.125-.136-.214-.354-.266-.652a5.92 5.92 0 01-.07-.994V3.954c0-.384.023-.702.065-.955.048-.288.13-.5.247-.636.115-.137.296-.234.538-.293a3.41 3.41 0 01.794-.077h.445zm-36.823 14.06v1.99h11.065c.713 0 1.27.151 1.679.499.37.313.606.773.712 1.408h1.925v-3.896h-.566c-.898.013-1.599.023-1.599-1.442V8.745c0-.286.024-.524.07-.713.058-.229.152-.395.283-.497.116-.092.299-.155.548-.192.222-.033.503-.049.844-.049h.097V5.301h-6.699v1.997c.225.006.417.02.575.044.247.036.424.101.53.193l.006.005c.113.106.192.283.238.533.038.203.057.463.057.782V15.744h-4.471V8.855c0-.323.018-.587.055-.792.045-.25.125-.426.243-.529.104-.095.283-.159.532-.194.159-.023.35-.037.575-.043V5.301h-6.7v1.993h.099c.345 0 .628.017.85.051.251.039.434.105.548.196v.001c.13.105.22.272.276.499.044.187.067.422.067.704v5.867c0 .283-.024.518-.071.705-.057.226-.151.391-.283.495l-.004.003c-.114.088-.296.15-.545.188-.22.034-.5.05-.838.05h-.098zM40.828 14.49v-1.99h4.466v1.99c0 .3-.016.548-.046.742-.036.233-.099.405-.188.515-.093.116-.24.199-.442.248-.163.04-.37.06-.62.06h-.11v1.988h6.704v-1.988h-.097c-.345 0-.628-.017-.85-.05-.25-.038-.433-.102-.546-.191l-.003-.004c-.128-.103-.22-.268-.277-.495a3.003 3.003 0 01-.07-.702V8.745c0-.286.024-.524.07-.713.058-.23.154-.398.288-.5.115-.09.297-.152.543-.189.223-.033.504-.049.845-.049h.097V5.301h-6.703v1.993h.11c.245 0 .448.018.611.056.197.046.344.125.438.24.095.108.16.28.198.513.032.199.047.45.047.752V10.552h-4.465V8.855c0-.298.015-.547.047-.745.038-.233.103-.405.197-.516.095-.114.242-.194.438-.242.163-.039.367-.058.612-.058h.11V5.301h-6.699v1.993h.098a5.8 5.8 0 01.85.051c.249.039.43.104.545.194l.004.003c.129.105.22.272.274.499.045.187.067.422.067.704v5.867c0 .283-.023.518-.07.705-.057.226-.151.391-.282.495l-.004.003c-.115.088-.297.15-.546.188-.22.034-.5.05-.838.05h-.098v1.99h6.7v-1.99h-.111c-.243 0-.447-.018-.609-.057-.196-.046-.343-.124-.437-.233-.097-.112-.163-.285-.201-.522-.032-.2-.047-.45-.047-.752zm-14.52-2.048c.392-.087.857-.174 1.395-.258l.3-.046v2.842l-.131.085a9.986 9.986 0 01-.657.396 6.147 6.147 0 01-.597.291 3.55 3.55 0 01-.546.184 2.132 2.132 0 01-.498.064c-.235 0-.45-.036-.644-.105a1.495 1.495 0 01-.531-.325l-.003-.003a1.487 1.487 0 01-.465-1.119c0-.172.031-.343.092-.514a1.94 1.94 0 01.255-.475c.112-.156.262-.298.447-.425a3.12 3.12 0 01.627-.32l.001-.002c.233-.088.55-.18.955-.27zm1.694-3.171V10.53l-.244.02c-.744.061-1.431.143-2.063.245a15.84 15.84 0 00-1.717.367h-.001c-.51.139-.953.29-1.331.451a4.534 4.534 0 00-.913.502 3.833 3.833 0 00-.614.567c-.172.2-.317.413-.431.64h-.001a3.145 3.145 0 00-.261.718 3.428 3.428 0 00-.086.78c0 .485.082.928.25 1.33a3.3 3.3 0 00.755 1.103c.339.333.732.583 1.177.75.45.168.959.253 1.524.253.301 0 .608-.03.918-.088.312-.06.633-.148.958-.267h.002a7.288 7.288 0 001.036-.474 12.78 12.78 0 001.162-.73l.203-.143.145.213c.169.246.358.462.568.648.21.186.44.342.689.466h.001a3.3 3.3 0 00.825.28 5.45 5.45 0 001.968.01c.266-.047.537-.114.813-.201v-1.995c-.07.02-.139.038-.204.053-.178.041-.334.06-.466.06a1.335 1.335 0 01-.764-.227v.001a1.346 1.346 0 01-.293-.25c-.087-.1-.151-.209-.194-.326v-.001a2.023 2.023 0 01-.084-.49 9.974 9.974 0 01-.024-.745V9.27c0-.552-.037-1.03-.112-1.431-.073-.39-.18-.708-.322-.956a2.725 2.725 0 00-.602-.7 4.794 4.794 0 00-.976-.624l-.001-.001a5.218 5.218 0 00-1.28-.431 7.775 7.775 0 00-1.556-.145c-.562 0-1.095.048-1.596.143a6.88 6.88 0 00-1.417.426c-.445.189-.832.403-1.16.642a3.77 3.77 0 00-.808.78l-.001.002a2.244 2.244 0 00-.46 1.397c0 .224.036.427.106.61.07.182.178.348.32.498l.002.001c.143.152.306.266.489.341.188.078.398.116.633.116.188 0 .361-.027.52-.079.156-.051.302-.128.437-.23.13-.103.255-.24.37-.412.121-.18.234-.397.34-.654.088-.225.173-.415.255-.572.087-.17.171-.3.252-.395l.003-.004c.08-.091.174-.173.282-.25.1-.07.215-.133.343-.19l.004-.002a2.067 2.067 0 01.84-.166c.195 0 .377.021.548.064.174.042.332.108.475.196.14.086.26.184.361.296.105.117.189.246.248.389l.001.006c.056.14.098.326.123.557.024.215.036.474.036.778zM7.93 0H0v1.993h.446c.223 0 .417.013.582.038.178.027.322.07.43.13l.004.002c.11.063.204.142.284.236V2.4c.08.095.146.204.196.327l.002.004c.046.12.08.288.102.505.02.198.03.437.03.718v10.174c0 .294-.009.54-.027.738-.02.213-.053.374-.101.48a1.098 1.098 0 01-.192.323.97.97 0 01-.29.228l-.007.004c-.11.053-.262.094-.454.118a5.059 5.059 0 01-.635.035H0v1.988h7.93v-1.988h-.445c-.237 0-.438-.011-.602-.031a1.443 1.443 0 01-.427-.107l-.003-.001a.96.96 0 01-.282-.212 1.199 1.199 0 01-.2-.302l-.002-.006a1.656 1.656 0 01-.119-.466 5.007 5.007 0 01-.033-.627v-2.02l.096-.088L8.55 9.777l.215-.196.164.25 3.048 4.658.003.004c.13.206.23.379.3.518.087.172.13.31.13.412 0 .128-.041.239-.123.336a.697.697 0 01-.242.176v-.001c-.096.045-.254.077-.476.095-.202.016-.466.025-.789.025h-.084v1.988h8.231v-1.988h-.072c-.265 0-.5-.022-.709-.067a1.823 1.823 0 01-.56-.21c-.125-.072-.276-.214-.454-.422-.162-.19-.354-.445-.577-.764l-.002-.002-4.996-7.252-.154-.223.194-.18 4.19-3.901c.162-.151.312-.285.451-.4a3.668 3.668 0 01.679-.46c.1-.05.192-.088.28-.11.086-.026.2-.044.342-.055.136-.01.295-.015.48-.015V0h-7.323v1.993h.432c.201 0 .369.008.503.024.159.02.278.055.36.109l.004.001a.595.595 0 01.198.226.647.647 0 01.033.509 1.04 1.04 0 01-.075.167l-.01.016a1.75 1.75 0 01-.18.231c-.073.08-.171.183-.298.308v.002L6.254 8.964l-.437.436V3.795c0-.258.011-.478.035-.66.026-.203.07-.364.13-.485.058-.12.134-.224.229-.316.09-.087.197-.161.319-.222.09-.047.233-.079.43-.096.174-.016.399-.023.673-.023h.298V0zm112.863 16.054v1.988h6.487v-1.988c-.202 0-.377-.023-.522-.067a.85.85 0 01-.405-.245 1.013 1.013 0 01-.209-.46 2.794 2.794 0 01-.057-.606v-.87l.11-.088 1.567-1.254.201-.16.156.214 1.431 1.974.002.002c.137.194.243.363.317.505.093.173.138.32.138.438 0 .24-.118.412-.355.515-.156.067-.375.102-.655.102h-.025v1.988H136v-1.991a6.284 6.284 0 01-.551-.038 1.996 1.996 0 01-.562-.136l-.006-.003a1.866 1.866 0 01-.448-.334 6.287 6.287 0 01-.518-.573l-3.434-4.29-.202-.253.254-.186 2.623-1.924h.001c.304-.22.566-.4.784-.539.227-.144.41-.246.551-.303.147-.061.324-.107.528-.136.127-.017.263-.03.406-.036V5.3h-6.686V7.3c.249.01.449.039.598.084.307.092.459.266.459.522 0 .146-.067.303-.204.468a3.106 3.106 0 01-.436.42l-2.649 2.205-.421.35V8.682c0-.24.015-.443.044-.61a1.11 1.11 0 01.165-.454l.006-.008c.091-.122.244-.207.454-.256.11-.026.24-.042.388-.051v-2h-6.351v1.992h.098c.345 0 .628.017.849.051.249.039.432.104.546.194l.004.003c.128.105.22.272.275.499.044.187.066.422.066.704v5.867c0 .283-.023.518-.07.705-.057.226-.151.391-.283.495l-.003.003c-.115.088-.297.15-.546.188-.22.034-.499.05-.838.05h-.098zm-40.972 7.55c-.311-2.236-.515-3.596-.515-7.846h1.028c0 4.25-.204 5.61-.513 7.846z" fill="#E0001B"/>
</svg>
