<svg width="32" height="32" viewBox="0 0 32 32" fill="none" xmlns="http://www.w3.org/2000/svg">
    <path d="M.337 10.106a10.378 10.378 0 019.77-9.77L16 0l5.894.337c5.266.3 9.468 4.503 9.77 9.77L32 16l-.337 5.894a10.378 10.378 0 01-9.77 9.77L16 32l-5.894-.337a10.378 10.378 0 01-9.77-9.77L0 16l.337-5.894z" fill="#fff"/>
    <path d="M18.322 21.182c.53-.419 1.038-.867 1.518-1.342 3.948-3.948 5.442-8.856 3.336-10.961-2.105-2.106-7.013-.612-10.961 3.336-3.948 3.948-5.442 8.856-3.336 10.961 1 1.001 2.633 1.18 4.492.68" stroke="#03135C" stroke-width="1.618" stroke-miterlimit="10" stroke-linecap="round" stroke-linejoin="round"/>
    <path d="M18.322 10.873c.53.418 1.038.866 1.518 1.342 3.948 3.948 5.442 8.856 3.336 10.961-2.105 2.106-7.013.612-10.961-3.336-3.948-3.948-5.442-8.856-3.337-10.961 1.001-1.001 2.634-1.18 4.493-.68" stroke="#8F88F8" stroke-width="1.618" stroke-miterlimit="10" stroke-linecap="round" stroke-linejoin="round"/>
    <path d="M18.322 21.182a18.08 18.08 0 001.518-1.342c3.948-3.948 5.442-8.856 3.336-10.961M8.88 23.176c1 1.001 2.633 1.18 4.492.68" stroke="#03135C" stroke-width="1.618" stroke-miterlimit="10" stroke-linecap="round" stroke-linejoin="round"/>
    <path d="M18.712 15.242a.23.23 0 00-.209-.134H16.04l.388-1.553a.23.23 0 00-.397-.204l-2.757 3.216a.23.23 0 00.174.38h2.463l-.388 1.552a.23.23 0 00.397.205l2.757-3.216a.23.23 0 00.035-.246z" fill="#EC5C79"/>
</svg>
