<svg width="141" height="43" viewBox="0 0 141 43" fill="none" xmlns="http://www.w3.org/2000/svg">
    <path d="M36.741 25.166c-.724 0-1.267.272-1.629.815-.362.543-.543 1.267-.543 2.173 0 1.9.724 2.896 2.172 2.896.634 0 1.358-.18 2.263-.452v1.539a6.908 6.908 0 01-2.444.453c-1.267 0-2.262-.363-2.896-1.177-.633-.815-.995-1.901-.995-3.26 0-.905.18-1.72.452-2.353.271-.634.814-1.177 1.448-1.539.634-.362 1.358-.543 2.172-.543.815 0 1.72.18 2.534.634l-.633 1.448a4.408 4.408 0 00-.996-.362 1.528 1.528 0 00-.905-.272zM42.715 29.15v3.349h-1.901v-8.69h2.534c1.177 0 2.082.18 2.625.633.543.453.814 1.087.814 1.992 0 .543-.18.995-.452 1.358a2.94 2.94 0 01-1.177.905c1.358 1.9 2.172 3.168 2.534 3.802h-2.081l-2.082-3.35h-.814zm0-1.54h.633c.543 0 .996-.09 1.267-.271.272-.181.453-.453.453-.905 0-.453-.181-.725-.453-.905-.271-.182-.724-.272-1.357-.272h-.543v2.354zM51.675 27.339l1.81-3.53h1.991l-2.896 5.25v3.35h-1.81v-3.35l-2.897-5.25h1.992l1.81 3.53zM61.811 30.055c0 .814-.271 1.358-.814 1.81-.543.453-1.358.634-2.353.634-.905 0-1.72-.181-2.444-.543v-1.72c.633.271 1.086.452 1.539.543.452.09.814.181 1.086.181.452 0 .724-.09.905-.272.18-.18.362-.362.362-.724a.692.692 0 00-.181-.452c-.09-.09-.272-.272-.453-.363-.18-.09-.543-.362-1.176-.543-.543-.271-.905-.452-1.177-.724-.271-.272-.452-.453-.633-.815-.181-.362-.272-.633-.272-1.086 0-.724.271-1.358.814-1.81.543-.453 1.268-.634 2.173-.634.452 0 .905.09 1.267.18.452.091.814.273 1.267.454l-.634 1.448c-.452-.181-.814-.362-1.176-.362s-.634-.09-.905-.09c-.362 0-.634.09-.815.27a.822.822 0 00-.271.635c0 .18 0 .271.09.452.09.09.181.272.362.362.181.09.543.272 1.177.634a5.61 5.61 0 011.72 1.177c.361.271.542.815.542 1.358zM66.79 32.408h-1.901v-7.06h-2.353v-1.54h6.607v1.54H66.79v7.06zM75.84 32.408l-.634-2.082h-3.168l-.633 2.082h-1.991l3.077-8.69h2.263l3.077 8.69H75.84zm-1.086-3.53c-.543-1.901-.905-2.897-.996-3.169-.09-.271-.09-.452-.18-.543-.091.543-.544 1.72-1.178 3.712h2.354zM79.008 32.408v-8.69h1.9v7.151h3.53v1.54h-5.43zM92.855 32.408l-2.081-6.79h-.09c.09 1.359.09 2.264.09 2.807v3.983h-1.63v-8.69h2.535l2.081 6.608 2.172-6.608h2.535v8.69h-1.72v-4.073-.634c0-.181 0-.905.09-1.992h-.09l-2.263 6.79h-1.629v-.09zM108.603 28.063c0 1.449-.362 2.535-1.086 3.26-.724.723-1.719 1.176-3.077 1.176-1.357 0-2.353-.362-3.077-1.177-.724-.815-1.086-1.9-1.086-3.35 0-1.448.362-2.534 1.086-3.258.724-.724 1.72-1.177 3.077-1.177 1.358 0 2.353.362 3.077 1.177.724.814 1.086 1.991 1.086 3.35zm-6.335 0c0 .996.181 1.72.543 2.173.362.452.905.724 1.629.724 1.448 0 2.263-.996 2.263-2.897 0-1.991-.724-2.897-2.172-2.897-.724 0-1.267.272-1.629.724-.362.453-.634 1.268-.634 2.173zM113.852 32.408h-1.9v-7.06h-2.353v-1.54h6.607v1.54h-2.354v7.06zM125.528 28.063c0 1.449-.362 2.535-1.086 3.26-.724.723-1.719 1.176-3.077 1.176-1.358 0-2.353-.362-3.077-1.177-.724-.815-1.086-1.9-1.086-3.35 0-1.448.362-2.534 1.086-3.258.724-.724 1.719-1.177 3.077-1.177 1.358 0 2.353.362 3.077 1.177.724.814 1.086 1.991 1.086 3.35zm-6.426 0c0 .996.181 1.72.543 2.173.362.452.905.724 1.629.724 1.449 0 2.263-.996 2.263-2.897 0-1.991-.724-2.897-2.172-2.897-.724 0-1.267.272-1.629.724-.362.453-.634 1.268-.634 2.173zM129.148 29.15v3.349h-1.901v-8.69h2.534c1.177 0 2.082.18 2.625.633.543.453.815 1.087.815 1.992 0 .543-.181.995-.453 1.358a2.94 2.94 0 01-1.176.905c1.357 1.9 2.172 3.168 2.534 3.802h-2.082l-2.082-3.35h-.814zm0-1.54h.633c.544 0 .996-.09 1.268-.271.271-.181.452-.453.452-.905 0-.453-.181-.725-.452-.905-.272-.182-.724-.272-1.358-.272h-.543v2.354zM140.642 30.055c0 .814-.271 1.358-.814 1.81-.543.453-1.358.634-2.353.634-.905 0-1.72-.181-2.444-.543v-1.72c.634.271 1.086.452 1.539.543.452.09.814.181 1.086.181.452 0 .724-.09.905-.272.181-.18.362-.362.362-.724a.694.694 0 00-.181-.452c-.091-.09-.272-.272-.453-.363-.181-.09-.543-.362-1.176-.543-.543-.271-.905-.452-1.177-.724-.271-.272-.452-.453-.633-.815-.181-.362-.272-.633-.272-1.086 0-.724.272-1.358.815-1.81.543-.453 1.267-.634 2.172-.634.452 0 .905.09 1.267.18.452.091.814.273 1.267.454l-.634 1.448c-.452-.181-.814-.362-1.176-.362s-.634-.09-.905-.09c-.362 0-.634.09-.815.27a.822.822 0 00-.271.635c0 .18 0 .271.09.452.091.09.181.272.362.362.181.09.543.272 1.177.634a5.613 5.613 0 011.719 1.177c.362.271.543.815.543 1.358zM36.289 41.914l-.724-1.72h-2.263l-.724 1.72h-.633l2.262-5.432h.543l2.263 5.432h-.724zm-.905-2.264l-.634-1.72c-.09-.18-.18-.452-.271-.814-.09.271-.181.452-.272.815l-.633 1.72h1.81zM37.737 36.482h1.629c.724 0 1.267.09 1.629.362.362.181.543.543.543.996 0 .362-.09.543-.271.815-.181.18-.453.362-.815.362.815.18 1.267.543 1.267 1.267 0 .453-.18.905-.543 1.177-.362.272-.815.453-1.448.453h-1.991v-5.432zm.633 2.354h1.086c.453 0 .815-.09.996-.181.181-.09.272-.362.272-.724 0-.272-.091-.544-.362-.634a3.375 3.375 0 00-1.087-.181h-.995v1.72h.09zm0 .543v1.992h1.177c.453 0 .815-.091.995-.272.272-.181.362-.453.362-.815 0-.362-.09-.543-.362-.724-.271-.181-.633-.272-1.086-.272H38.37v.09zM44.615 41.914h-.633v-4.889h-1.81v-.543h4.253v.543h-1.81v4.889zM52.218 39.198c0 .905-.272 1.539-.724 2.082-.453.453-1.086.724-1.9.724-.815 0-1.449-.271-1.901-.724-.453-.543-.724-1.177-.724-2.082 0-.906.271-1.54.724-2.082.452-.544 1.086-.724 1.9-.724.815 0 1.448.271 1.9.724.453.452.725 1.176.725 2.082zm-4.525 0c0 .724.18 1.267.452 1.63.362.361.815.542 1.448.542.634 0 1.086-.18 1.448-.543.362-.362.453-.905.453-1.63 0-.723-.181-1.267-.453-1.629-.362-.362-.814-.543-1.448-.543-.633 0-1.086.181-1.448.543-.362.362-.452.906-.452 1.63zM55.929 41.914l-1.9-4.798c0 .362.09.815.09 1.358v3.44h-.634v-5.432h.996l1.81 4.436 1.81-4.436h.996v5.432h-.634v-3.44c0-.362 0-.815.09-1.268l-1.9 4.798h-.724v-.09zM65.522 39.198c0 .905-.271 1.539-.724 2.082-.452.453-1.086.724-1.9.724-.815 0-1.449-.271-1.901-.724-.453-.453-.724-1.177-.724-2.082 0-.906.271-1.54.724-2.082.453-.544 1.086-.724 1.9-.724.815 0 1.449.271 1.901.724.453.452.724 1.176.724 2.082zm-4.525 0c0 .724.181 1.267.453 1.63.362.361.814.542 1.448.542.633 0 1.086-.18 1.448-.543.362-.362.452-.905.452-1.63 0-.723-.18-1.267-.452-1.629-.362-.362-.815-.543-1.448-.543-.634 0-1.086.181-1.449.543-.361.362-.452.906-.452 1.63zM70.41 40.284c0 .543-.181.905-.543 1.177-.362.272-.815.362-1.539.362H66.7v-5.431h3.349v.543h-2.715v1.72h.905c.543 0 .905.09 1.176.18.272.091.543.272.724.453.272.362.272.634.272.996zm-2.987 1.086h.905c.453 0 .815-.09 1.086-.271.181-.181.362-.453.362-.815 0-.362-.09-.634-.362-.724-.271-.181-.633-.181-1.176-.181h-.815v1.991zM71.677 36.482h.633v2.987c0 .544 0 1.087-.09 1.54l3.168-4.527h.724v5.432h-.634v-2.988c0-.452 0-.995.09-1.539l-3.167 4.527h-.724v-5.432zM81.723 41.914h-.633v-4.889h-1.81l-.091.906c-.181 1.176-.272 2.082-.453 2.625-.18.543-.271.905-.452 1.177-.181.18-.453.362-.815.271-.18 0-.362 0-.543-.09v-.544c.181.091.272.091.453.091.18 0 .271-.09.362-.181.09-.09.18-.272.271-.543.09-.272.181-.724.272-1.54.09-.723.271-1.629.362-2.715h3.077v5.432zM83.262 36.482h.633v2.987c0 .544 0 1.087-.09 1.54l3.167-4.527h.725v5.432h-.634v-2.988c0-.452 0-.995.09-1.539l-3.167 4.527h-.724v-5.432zM93.76 36.935c-.633 0-1.086.18-1.448.633-.361.363-.543.906-.543 1.63 0 .724.181 1.267.543 1.63.362.361.815.542 1.449.542.362 0 .814-.09 1.357-.18v.543c-.362.18-.905.18-1.448.18-.814 0-1.448-.27-1.9-.724-.453-.452-.725-1.176-.725-2.082 0-.543.09-1.086.362-1.448.181-.453.544-.724.906-.996.452-.271.905-.362 1.448-.362.633 0 1.086.09 1.538.272l-.271.543c-.362 0-.815-.181-1.267-.181zM102.63 41.914h-.633v-4.889h-2.896v4.889h-.634v-5.432h4.254v5.432h-.091zM107.789 38.021c0 .543-.181.996-.543 1.267-.362.272-.905.453-1.72.453h-.633v2.082h-.634v-5.431h1.448c1.358.09 2.082.633 2.082 1.629zm-2.896 1.177h.633c.543 0 .996-.09 1.267-.272.272-.18.362-.452.362-.905 0-.362-.09-.634-.362-.815-.271-.18-.633-.271-1.176-.271h-.724v2.263zM113.853 39.198c0 .905-.272 1.539-.724 2.082-.453.453-1.086.724-1.901.724-.814 0-1.448-.271-1.9-.724-.453-.453-.724-1.177-.724-2.082 0-.906.271-1.54.724-2.082.452-.544 1.086-.724 1.9-.724.815 0 1.448.271 1.901.724.452.452.724 1.176.724 2.082zm-4.435 0c0 .724.181 1.267.453 1.63.362.361.814.542 1.448.542.633 0 1.086-.18 1.448-.543.362-.362.452-.905.452-1.63 0-.723-.181-1.267-.452-1.629-.362-.362-.815-.543-1.448-.543-.634 0-1.086.181-1.448.543-.362.362-.453.906-.453 1.63zM118.83 40.284c0 .543-.181.905-.543 1.177-.362.272-.814.362-1.538.362h-1.629v-5.431h3.348v.543h-2.715v1.72h.905c.543 0 .905.09 1.177.18.271.091.543.272.724.453.181.362.271.634.271.996zm-2.986 1.086h.905c.452 0 .814-.09 1.086-.271.181-.181.362-.453.362-.815 0-.362-.091-.634-.362-.724-.272-.181-.634-.181-1.177-.181h-.814v1.991zM123.175 41.914h-3.168v-5.432h3.168v.543h-2.534v1.72h2.353v.543h-2.353v1.992h2.534v.634zM127.61 36.482v.543h-2.535v4.798h-.633v-5.431h3.168v.09zM133.493 39.198c0 .905-.272 1.539-.724 2.082-.453.453-1.086.724-1.901.724-.814 0-1.448-.271-1.901-.724-.452-.453-.724-1.177-.724-2.082 0-.906.272-1.54.724-2.082.453-.544 1.087-.724 1.901-.724.815 0 1.448.271 1.901.724.452.452.724 1.176.724 2.082zm-4.526 0c0 .724.181 1.267.453 1.63.362.361.815.542 1.448.542.634 0 1.086-.18 1.448-.543.362-.362.453-.905.453-1.63 0-.723-.181-1.267-.453-1.629-.362-.362-.814-.543-1.448-.543-.633 0-1.086.181-1.448.543-.362.362-.453.906-.453 1.63zM137.203 41.914l-1.9-4.798c0 .362.09.815.09 1.358v3.44h-.633v-5.432h.995l1.81 4.436 1.811-4.436h.995v5.432h-.633v-3.44c0-.362 0-.815.09-1.268l-1.901 4.798h-.724v-.09zM46.334 15.027l2.354 6.247h5.43l-7.784-6.247zM51.946 4.979h1.086l1.991 4.526h-1.086L51.946 4.98zM56.29 5.16h.905l1.267 4.345h-.905L56.29 5.16zM60.363 5.432h.905l.362 4.345-.905-.09-.362-4.255zM64.165 6.246l.905.09v3.984l-.905-.362V6.246zM21.898 36.482l-18.916-.724L.81 42.095h20.093c.18-1.901.543-3.802.995-5.613zM32.759 17.834L20.72 10.41l-2.715 2.715 12.128 7.333c.814-.905 1.72-1.81 2.625-2.625zM80.456 19.01l3.62-4.616-1.72-1.358-3.62 4.526c.543.453 1.177.905 1.72 1.448zM52.127 9.867L47.873.453l-3.62.905 4.163 9.143c1.177-.271 2.444-.543 3.711-.634zM69.686 12.13l.362-7.242-2.263-.814-.453 7.242c.815.271 1.54.543 2.354.815zM22.713 33.857L11.218 32.59l-.724 1.086 11.766 1.358c.181-.362.272-.724.453-1.177zM23.618 29.602L13.21 27.52l-.815.996 10.68 2.172.543-1.086zM25.971 25.438l-9.775-3.259-.905.905 10.046 3.35a6.09 6.09 0 00.634-.996zM28.414 21.636l-8.326-3.712-.996.815 8.598 3.802c.181-.271.453-.634.724-.905zM39.638 13.579l-5.16-5.522-1.085.362 5.249 5.703c.362-.18.724-.362.995-.543zM35.383 16.023l-6.516-5.16-1.177.543 6.607 5.341c.362-.271.724-.543 1.087-.724zM72.039 13.036l.995-4.074-.814-.362-.996 4.074c.272.09.543.271.815.362zM74.21 14.213l1.359-3.802-.634-.453-1.358 3.983c.181 0 .453.09.634.272zM77.831 16.476l1.72-2.987-.543-.544-1.81 3.078c.18.181.362.272.633.453zM46.335 10.682l-2.987-4.798h-.905l3.168 4.98c.271-.091.543-.091.724-.182zM76.02 15.208l1.63-3.258-.634-.453-1.72 3.35c.272.09.453.27.725.361zM43.348 11.95l-4.072-5.16-1.177.18 4.254 5.432c.362-.181.724-.362.995-.453z" fill="#fff"/>
</svg>
