<svg width="13" height="18" viewBox="0 0 13 18" fill="none" xmlns="http://www.w3.org/2000/svg">
    <path d="M6.5 0C2.915 0 0 2.935 0 6.545c0 2.625 1.579 5.424 3.123 7.601 1.545 2.178 3.09 3.734 3.09 3.734a.405.405 0 00.575 0s1.546-1.556 3.09-3.734C11.423 11.97 13 9.17 13 6.546 13 2.935 10.085 0 6.5 0zm0 .818c3.146 0 5.687 2.56 5.687 5.727 0 2.284-1.468 5.008-2.97 7.126-1.359 1.915-2.47 3.03-2.717 3.284-.247-.255-1.357-1.37-2.715-3.284C2.282 11.553.813 8.83.813 6.545.813 3.378 3.354.818 6.5.818z" fill="#09C4B1"/>
    <path d="M6.5 3.681c-1.566 0-2.843 1.288-2.843 2.864 0 1.577 1.277 2.865 2.843 2.865s2.844-1.288 2.844-2.865c0-1.576-1.278-2.864-2.844-2.864zm0 .819c1.127 0 2.032.91 2.032 2.045A2.033 2.033 0 016.5 8.591a2.032 2.032 0 01-2.03-2.046c0-1.134.903-2.045 2.03-2.045z" fill="#09C4B1"/>
</svg>
