<svg width="16" height="20" viewBox="0 0 16 20" fill="none" xmlns="http://www.w3.org/2000/svg">
    <g opacity=".1" fill="#fff">
        <path d="M7.787 2.898a3.519 3.519 0 100 7.037 3.519 3.519 0 000-7.037zm0 5.81a2.29 2.29 0 112.29-2.291A2.29 2.29 0 017.788 8.7v.006z"/>
        <path d="M7.786 0A7.24 7.24 0 00.552 7.203c0 2.868 1.61 5.269 2.788 7.019l.215.319a61.17 61.17 0 003.77 4.912l.467.547.467-.547a61.287 61.287 0 003.77-4.912l.215-.325c1.173-1.75 2.782-4.145 2.782-7.013A7.24 7.24 0 007.786 0zm3.433 13.51l-.222.325a49.912 49.912 0 01-3.211 4.237c-.725-.878-2.155-2.653-3.212-4.237l-.215-.326C3.273 11.89 1.78 9.671 1.78 7.18a6.006 6.006 0 0112.011 0c0 2.517-1.486 4.734-2.572 6.33z"/>
    </g>
</svg>
