<svg width="16" height="16" viewBox="0 0 16 16" fill="none" xmlns="http://www.w3.org/2000/svg">
    <path d="M15.531 5.656c.26 0 .469-.21.469-.468V3.313a.469.469 0 00-.469-.47h-1.406V.47A.469.469 0 0013.656 0H1.406a.469.469 0 00-.468.469v1.437h-.47a.469.469 0 000 .938h.47v.937h-.47a.469.469 0 000 .938h.47v.937h-.47a.469.469 0 000 .938h.47v.937h-.47a.469.469 0 000 .938h.47v.937h-.47a.469.469 0 000 .938h.47v.937h-.47a.469.469 0 000 .938h.47v.937h-.47a.469.469 0 000 .938h.47v1.437c0 .26.21.469.468.469h12.25c.26 0 .469-.21.469-.469v-2.375h1.406c.26 0 .469-.21.469-.469v-1.874a.469.469 0 00-.469-.47h-1.406v-.937h1.406c.26 0 .469-.21.469-.469V7.063a.469.469 0 00-.469-.47h-1.406v-.937h1.406zm-1.406-1.875h.938v.938h-.938V3.78zM3.719 15.062H1.875v-.968h.438a.469.469 0 000-.938h-.438v-.937h.438a.469.469 0 000-.938h-.438v-.937h.438a.469.469 0 000-.938h-.438V8.47h.438a.469.469 0 100-.938h-.438v-.937h.438a.469.469 0 100-.938h-.438V4.72h.438a.469.469 0 100-.938h-.438v-.937h.438a.469.469 0 100-.938h-.438V.938h1.844v14.124zm9.469 0H4.655V.938h8.532v14.124zm1.874-3.78v.937h-.937v-.938h.938zm0-3.75v.937h-.937V7.53h.938z" fill="#1D1D1B"/>
</svg>
