<svg width="20" height="20" viewBox="0 0 20 20" fill="none" xmlns="http://www.w3.org/2000/svg">
    <path d="M19.883 1.384L18.616.117a.398.398 0 00-.564 0L16.14 2.03l-.544-.544a.399.399 0 00-.564 0l-.668.669-.567-.567a.399.399 0 00-.564 0L8.276 6.544a.398.398 0 00.563.563l3.792-3.791.285.285-9.72 9.72-.002.003a.396.396 0 00-.062.08L.835 17.4a.398.398 0 00.004.405l-.722.722a.398.398 0 000 .563l.794.794a.397.397 0 00.563 0l.723-.722a.398.398 0 00.404.004l3.994-2.297a.4.4 0 00.081-.062l.002-.001L18.514 4.969a.398.398 0 000-.564l-.544-.544 1.913-1.914a.398.398 0 000-.563zM1.193 19.038l-.231-.23.432-.433.23.23-.432.433zm1.275-.716l-.79-.79 1.885-3.279 2.184 2.184-3.279 1.885zm3.929-2.363L4.04 13.604l9.439-9.44 2.356 2.356-9.44 9.44zM16.399 5.957l-3.204-3.205.319-.32 3.204 3.205-.319.32zm.883-.883l-2.356-2.356.387-.387 2.356 2.356-.387.387zm.124-1.776l-.703-.704L18.334.962l.704.704-1.632 1.631z" fill="#005BFF"/>
    <path d="M9.816 11.367a.398.398 0 00-.563 0l-3.12 3.12a.398.398 0 00.563.564l3.12-3.12a.399.399 0 000-.564zM10.793 10.391a.398.398 0 00-.564 0l-.104.105a.398.398 0 10.563.563l.104-.104a.398.398 0 000-.564z" fill="#005BFF"/>
</svg>
