<svg width="16" height="15" viewBox="0 0 16 15" fill="none" xmlns="http://www.w3.org/2000/svg">
    <path d="M5.917 4.167L3.417.833c-.879 0-1.586 1.39-1.83 1.875C1 3.875 4.036 8.351 5.5 10.052c.586 1.167 5.417 3.698 7.083 4.115 1.171 0 1.423-1.303 1.667-1.667.878-.583-1.512-2.205-2.488-2.813-.878-.583-1.435.365-1.679.73l-1.249-.365L6.75 8.75 4.667 5.833l1.25-1.666z" fill="#1B1B1F"/>
    <path fill-rule="evenodd" clip-rule="evenodd" d="M3.14 1.298c-.036.025-.12.08-.226.146-.108.07-.238.152-.36.232-.272.176-.496.33-.559.388a.55.55 0 00-.158.213c-.043.104-.087.29-.087.642 0 .67.263 1.73 1.017 3.098.86 1.557 2.158 3.05 2.922 3.796l.005.005c.745.752 2.158 2.026 3.623 2.831 1.818 1 2.527 1.101 3.16 1.101.329 0 .53-.045.656-.093.119-.046.186-.1.24-.154.306-.304.533-.66.684-.949a4.408 4.408 0 00.19-.407.544.544 0 00-.225-.385 57.14 57.14 0 00-2.395-1.49l-.11-.067a.798.798 0 00-.204-.092c-.085-.021-.231-.035-.496.164a3.419 3.419 0 01-.577.41c-.257.145-.651.32-1.044.261a1.224 1.224 0 01-.355-.124 3.575 3.575 0 01-.346-.204 10.255 10.255 0 01-.76-.564c-.51-.41-1.014-.867-1.219-1.081-.023-.025-.05-.054-.083-.087-.226-.236-.66-.686-1.055-1.153a8.44 8.44 0 01-.617-.807 2.836 2.836 0 01-.216-.386 1.07 1.07 0 01-.104-.426c0-.34.06-.586.195-.819.061-.105.132-.199.2-.285l.052-.066c.052-.067.106-.135.166-.217.032-.043.069-.087.097-.12l.005-.006c.033-.038.06-.07.086-.105a.597.597 0 00.104-.189c.027-.09.054-.298-.251-.705l-.006-.008-.006-.008c-.199-.294-.432-.645-.66-.99a78.944 78.944 0 00-.802-1.194.36.36 0 00-.134-.124.305.305 0 00-.133-.03.488.488 0 00-.213.048zm11.526 10.915l.416.024v-.008l.001-.01v-.03c0-.023 0-.054-.004-.09a1.377 1.377 0 00-.575-1.016l-.004-.004-.005-.003a56.831 56.831 0 00-2.424-1.509c-.039-.024-.085-.053-.133-.081a1.61 1.61 0 00-.423-.181c-.375-.094-.782-.014-1.22.322l-.017.013-.015.015c-.047.044-.22.187-.432.306-.23.13-.411.178-.51.163H9.32a.65.65 0 01-.104-.045 2.76 2.76 0 01-.264-.156 9.448 9.448 0 01-.695-.516 14.63 14.63 0 01-1.138-1.008 43.11 43.11 0 00-.087-.09c-.228-.238-.641-.668-1.019-1.113a7.642 7.642 0 01-.554-.723 2.027 2.027 0 01-.152-.27c-.029-.063-.033-.091-.033-.091v.004c0-.225.036-.32.083-.4.03-.053.071-.109.136-.191l.044-.057c.054-.069.12-.152.189-.246.012-.017.03-.038.065-.08.031-.036.073-.085.114-.14a1.42 1.42 0 00.24-.455c.124-.417.027-.892-.377-1.434-.187-.277-.414-.619-.64-.959-.311-.469-.62-.935-.823-1.226a1.138 1.138 0 00-.94-.511c-.291-.004-.55.096-.69.19l-.193.124L2.1.977c-.242.157-.543.357-.671.476a1.372 1.372 0 00-.362.507c-.1.241-.15.547-.15.959 0 .859.328 2.06 1.122 3.5.909 1.648 2.263 3.204 3.067 3.988.768.776 2.245 2.112 3.81 2.973 1.887 1.037 2.737 1.203 3.563 1.203.401 0 .709-.054.953-.148.25-.096.413-.225.529-.34.386-.384.66-.82.835-1.152a5.232 5.232 0 00.251-.554l.009-.024.004-.011v-.003l.001-.002-.394-.136zm.394.136l-.394-.136.416.024-.003.057-.019.054z" fill="#1B1B1F"/>
</svg>
