<svg width="17" height="16" viewBox="0 0 17 16" fill="none" xmlns="http://www.w3.org/2000/svg">
    <path d="M12.929 6.154h-1.23a1.848 1.848 0 00-1.847-1.846V3.077a3.08 3.08 0 013.077 3.077z" fill="#fff"/>
    <path d="M15.39 6.154h-1.23a4.312 4.312 0 00-4.308-4.308V.616a5.545 5.545 0 015.538 5.538zM14.16 16h-.105C1.962 15.305.245 5.102.005 1.988A1.846 1.846 0 011.852 0h3.243a1.23 1.23 0 011.144.775l.936 2.302a1.23 1.23 0 01-.271 1.33l-1.31 1.322a5.76 5.76 0 004.664 4.677l1.335-1.323a1.231 1.231 0 011.335-.252l2.32.929a1.23 1.23 0 01.757 1.145v3.249A1.846 1.846 0 0114.16 16zM1.851 1.23a.615.615 0 00-.616.665C1.52 5.538 3.335 14.154 14.122 14.77a.615.615 0 00.651-.577l.002-.038v-3.25l-2.32-.929-1.767 1.754-.295-.037c-5.354-.67-6.08-6.024-6.08-6.08l-.037-.295L6.024 3.55 5.1 1.23H1.85z" fill="#fff"/>
</svg>
