<svg width="24" height="24" viewBox="0 0 24 24" fill="none" xmlns="http://www.w3.org/2000/svg">
    <path d="M.426 13.25a1.546 1.546 0 00-.038 2.096c.17.194.387.345.63.44l1.317.511c.078.032.142.09.18.165.038.074.047.159.025.239l-.405 1.338a1.546 1.546 0 00.282 1.443c.163.2.373.359.613.462.24.103.5.147.762.13l1.413-.1a.354.354 0 01.242.073.34.34 0 01.127.214l.218 1.37c.04.254.142.493.298.699.156.205.36.37.596.482a1.644 1.644 0 001.5-.052l1.229-.688a.356.356 0 01.46.102l.801 1.143c.149.21.347.383.579.502a1.642 1.642 0 001.5 0c.232-.12.43-.292.579-.502l.801-1.143a.359.359 0 01.46-.102l1.23.688a1.64 1.64 0 002.096-.43c.155-.206.258-.445.298-.698l.217-1.37a.34.34 0 01.128-.215.354.354 0 01.241-.073l1.414.1c.26.014.518-.033.755-.137.238-.104.445-.263.606-.463a1.546 1.546 0 00.277-1.435l-.404-1.338a.335.335 0 01.02-.247.346.346 0 01.184-.169l1.318-.512c.243-.094.459-.245.63-.44.17-.194.289-.426.347-.676a1.546 1.546 0 00-.386-1.42l-.95-1.007a.338.338 0 010-.46l.96-1.02a1.545 1.545 0 00.03-2.099 1.614 1.614 0 00-.631-.436l-1.318-.513a.346.346 0 01-.18-.163.335.335 0 01-.024-.24l.404-1.338a1.546 1.546 0 00-.282-1.443 1.61 1.61 0 00-.612-.462c-.24-.102-.501-.147-.762-.13l-1.413.1a.357.357 0 01-.241-.074.343.343 0 01-.128-.213l-.218-1.37a1.561 1.561 0 00-.298-.699 1.606 1.606 0 00-.596-.482 1.643 1.643 0 00-1.5.052l-1.22.69a.355.355 0 01-.46-.101L13.325.683a1.602 1.602 0 00-.579-.502 1.641 1.641 0 00-1.5 0c-.232.12-.43.292-.579.502l-.801 1.143a.356.356 0 01-.46.101l-1.23-.687a1.64 1.64 0 00-2.095.43 1.56 1.56 0 00-.299.698l-.217 1.37a.34.34 0 01-.128.215.354.354 0 01-.241.073l-1.414-.1c-.26-.015-.52.03-.758.134a1.609 1.609 0 00-.609.462 1.546 1.546 0 00-.279 1.438L2.54 7.3a.335.335 0 01-.02.246.346.346 0 01-.185.169l-1.317.5c-.243.094-.46.245-.63.44a1.546 1.546 0 00.038 2.096l.95 1.019a.337.337 0 010 .46l-.95 1.02zm1.891-2.319l-.96-1.02a.34.34 0 01-.083-.305.339.339 0 01.209-.24L2.8 8.852c.375-.148.68-.427.855-.783.176-.356.209-.763.094-1.142l-.413-1.326A.325.325 0 013.4 5.29a.348.348 0 01.295-.126l1.414.099c.403.026.801-.097 1.117-.343.316-.247.526-.6.59-.99l.217-1.371a.338.338 0 01.188-.25.355.355 0 01.318.002L8.767 3c.352.195.765.254 1.159.166s.74-.316.97-.64l.815-1.139a.347.347 0 01.287-.147.355.355 0 01.287.147l.801 1.143c.23.325.577.553.97.641.394.088.808.029 1.159-.166l1.229-.688a.355.355 0 01.442.1.337.337 0 01.064.148l.217 1.37c.063.39.273.744.59.99.315.247.713.37 1.117.344l1.413-.1a.355.355 0 01.295.129.34.34 0 01.061.31l-.399 1.321c-.116.379-.082.786.093 1.142.175.356.48.635.855.783l1.317.512a.349.349 0 01.211.24.336.336 0 01-.081.307l-.961 1.02A1.567 1.567 0 0021.254 12c0 .396.151.777.424 1.069l.96 1.02a.338.338 0 01-.126.546l-1.317.512c-.375.148-.68.427-.855.783a1.555 1.555 0 00-.093 1.142l.412 1.326a.333.333 0 01-.062.31.348.348 0 01-.295.128l-1.413-.099a1.645 1.645 0 00-1.118.343c-.315.247-.526.6-.589.99l-.217 1.371a.338.338 0 01-.189.25.356.356 0 01-.317-.002L15.23 21a1.651 1.651 0 00-1.158-.166c-.394.088-.74.316-.97.64l-.82 1.139a.347.347 0 01-.287.147.356.356 0 01-.287-.147l-.802-1.143c-.149-.21-.349-.383-.581-.501a1.646 1.646 0 00-1.547.026l-1.23.688a.355.355 0 01-.442-.1.338.338 0 01-.063-.148l-.217-1.37a1.58 1.58 0 00-.59-.99 1.645 1.645 0 00-1.117-.344l-1.413.099a.355.355 0 01-.295-.128.338.338 0 01-.062-.31l.412-1.326a1.555 1.555 0 00-.093-1.142 1.607 1.607 0 00-.855-.783l-1.33-.507a.348.348 0 01-.21-.24.335.335 0 01.081-.307l.96-1.02c.274-.291.425-.672.426-1.067 0-.396-.15-.777-.423-1.07z" fill="#E4003B"/>
    <path d="M8.833 16.046a.643.643 0 00.885-.117l5.565-7.108a.609.609 0 00-.127-.866.637.637 0 00-.468-.117.635.635 0 00-.417.24L8.71 15.18a.608.608 0 00.124.866zM13.008 14.474v.495c0 .525.213 1.028.592 1.4.38.37.894.58 1.43.58.537 0 1.051-.21 1.43-.58.38-.372.593-.875.593-1.4v-.495c0-.525-.213-1.028-.592-1.4a2.046 2.046 0 00-1.43-.58c-.537 0-1.052.21-1.431.58-.38.372-.592.875-.592 1.4zm2.78 0v.495c0 .197-.08.386-.221.525a.767.767 0 01-1.073 0 .734.734 0 01-.222-.525v-.495c0-.197.08-.386.222-.525a.767.767 0 011.073 0c.142.14.222.328.222.525zM8.962 11.505c.536 0 1.05-.209 1.43-.58.38-.371.593-.875.593-1.4v-.494c0-.525-.213-1.029-.593-1.4a2.045 2.045 0 00-1.43-.58c-.537 0-1.051.209-1.43.58-.38.371-.593.875-.593 1.4v.495c0 .524.213 1.028.593 1.4.379.37.893.579 1.43.579zM8.203 9.03c0-.197.08-.386.222-.525a.767.767 0 011.073 0c.142.139.222.328.222.525v.495c0 .196-.08.385-.222.524a.767.767 0 01-1.073 0 .734.734 0 01-.222-.524V9.03z" fill="#E4003B"/>
</svg>
