<svg width="16" height="15" viewBox="0 0 16 15" fill="none" xmlns="http://www.w3.org/2000/svg">
    <path d="M14.067 8.52a2 2 0 00.573-1.645l-.27-2.332c1.49-1.08 2.109-2.894 1.216-3.787-.382-.381-.978-.506-1.635-.341-.583.145-1.18.502-1.682 1.004l-.018.019-3.448-.4a2 2 0 00-1.645.573L1.414 7.356a2 2 0 000 2.828l4.08 4.08a2 2 0 002.829 0l5.744-5.744zm.111-7.195c.33-.083.602-.048.744.094.347.348.03 1.31-.682 2.01 0 0 .045-.606-.109-.943-.175-.386-.767-.768-.767-.768a2.5 2.5 0 01.814-.393zm-6.335.928a1 1 0 01.822-.286l2.924.339a3.218 3.218 0 00-.318.77.467.467 0 00-.66 0 .47.47 0 000 .665l1.326 1.327a.47.47 0 00.663-.663l-.331-.332c-.143-.143-.177-.414-.095-.744.074-.294.235-.609.458-.902l.128.015.477.476.474 4.095a1 1 0 01-.286.822l-5.81 5.81a1 1 0 01-1.414 0L2.034 9.477a1 1 0 010-1.414l5.809-5.81z" fill="#E0001B"/>
    <path d="M5.179 6.941c-.776 0-1.408.631-1.408 1.407s.632 1.408 1.408 1.408c.776 0 1.407-.632 1.407-1.408 0-.776-.631-1.407-1.407-1.407zm0 1.876a.47.47 0 110-.939.47.47 0 010 .94zM9.87 9.756a1.409 1.409 0 000-2.815c-.777 0-1.408.631-1.408 1.407s.631 1.408 1.407 1.408zm0-1.877a.47.47 0 11-.002.94.47.47 0 01.001-.94zM7.453 5.92a.47.47 0 01.926.154l-.784 4.704a.47.47 0 01-.926-.155l.784-4.703z" fill="#E0001B"/>
</svg>
