<svg width="16" height="16" viewBox="0 0 16 16" fill="none" xmlns="http://www.w3.org/2000/svg">
    <path d="M15.531 3.156h-2.86V1.723C12.672.773 11.9 0 10.95 0H5.051C4.1 0 3.328.773 3.328 1.723v1.433H.468A.469.469 0 000 3.625v4.531c0 .21.14.396.344.452l.5.138v6.785c0 .26.21.469.469.469h13.374c.26 0 .47-.21.47-.469V8.74l.494-.13A.469.469 0 0016 8.155V3.625a.469.469 0 00-.469-.469zM4.266 1.723c0-.433.352-.786.785-.786h5.898c.433 0 .785.353.785.786v1.433H4.266V1.723zM.937 4.093h14.126v3.702l-4.813 1.27v-.346a.469.469 0 00-.469-.469H6.22a.469.469 0 00-.469.469v.412L.937 7.8V4.094zm8.376 5.095v1.874H6.687V9.188h2.625zm4.906 5.874H1.78V9.006l3.969 1.098v1.427c0 .26.21.469.469.469H9.78c.26 0 .469-.21.469-.469v-1.497l3.969-1.047v6.075z" fill="#1D1D1B"/>
</svg>
