<svg width="14" height="8" viewBox="0 0 14 8" fill="none" xmlns="http://www.w3.org/2000/svg">
    <path d="M3.193 5.527l-.193.2V.667a.667.667 0 00-1.333 0v5.06l-.194-.2a.67.67 0 10-.946.946L1.86 7.807c.063.06.138.108.22.14a.627.627 0 00.507 0 .667.667 0 00.22-.14L4.14 6.473a.67.67 0 10-.947-.946zm3.14-4.194H13A.667.667 0 0013 0H6.333a.667.667 0 100 1.333zm6.667 2H6.333a.667.667 0 100 1.334H13a.667.667 0 000-1.334zm0 3.334H6.333a.667.667 0 100 1.333H13a.667.667 0 000-1.333z" fill="#323A92"/>
</svg>
