<svg width="14" height="14" viewBox="0 0 14 14" fill="none" xmlns="http://www.w3.org/2000/svg">
    <path d="M7 3a.667.667 0 00-.667.667v6.666a.666.666 0 101.334 0V3.667A.667.667 0 007 3zM3.667 7A.667.667 0 003 7.667v2.666a.666.666 0 101.333 0V7.667A.667.667 0 003.667 7zm6.666-1.333a.667.667 0 00-.666.666v4a.666.666 0 101.333 0v-4a.667.667 0 00-.667-.666zM11.667.333H2.333a2 2 0 00-2 2v9.334a2 2 0 002 2h9.334a2 2 0 002-2V2.333a2 2 0 00-2-2zm.666 11.334a.667.667 0 01-.666.666H2.333a.667.667 0 01-.666-.666V2.333a.667.667 0 01.666-.666h9.334a.667.667 0 01.666.666v9.334z" fill="#323A92"/>
</svg>
