<svg width="16" height="16" viewBox="0 0 16 16" fill="none" xmlns="http://www.w3.org/2000/svg">
    <path d="M15.531 13.188h-.469V1.405c0-.775-.63-1.406-1.406-1.406-.722 0-1.32.548-1.397 1.25h-.947a.469.469 0 00-.937 0h-.938a.469.469 0 00-.937 0h-.938a.469.469 0 00-.937 0H3.741A1.408 1.408 0 002.344 0C1.568 0 .938.63.938 1.406v11.781h-.47a.469.469 0 00-.468.47v1.874c0 .26.21.469.469.469H15.53c.26 0 .469-.21.469-.469v-1.875a.469.469 0 00-.469-.469zM13.656.938a.47.47 0 01.469.468v11.781h-.938V1.408a.47.47 0 01.47-.47zM3.75 13.188v-1.626h.938a.469.469 0 10.937 0H8.5a.469.469 0 10.938 0h.937a.469.469 0 10.938 0h.937v1.626h-8.5zM7.094 2.655c.259 0 .468-.21.468-.469H8.5a.469.469 0 10.938 0h.937a.469.469 0 10.938 0h.937v1.407h-.938a.469.469 0 00-.937 0h-.938a.469.469 0 00-.937 0h-.938a.469.469 0 00-.937 0H3.75V2.188h2.875c0 .258.21.468.469.468zm3.75 7.5a.469.469 0 00-.469.469h-.938a.469.469 0 00-.937 0H5.625a.469.469 0 00-.938 0H3.75V9.219h2.875a.469.469 0 10.938 0H8.5a.469.469 0 10.938 0h.937a.469.469 0 10.938 0h.937v1.406h-.938a.469.469 0 00-.468-.469zM7.094 5c.259 0 .468-.21.468-.469H8.5a.469.469 0 10.938 0h.937a.469.469 0 10.938 0h.937v1.407H9.375a.469.469 0 00-.938 0H7.5a.469.469 0 00-.938 0h-.937a.469.469 0 00-.938 0H3.75V4.53h2.875c0 .26.21.469.469.469zm4.218 3.281a.469.469 0 00-.937 0h-.938a.469.469 0 00-.937 0h-.938a.469.469 0 00-.937 0H3.75V6.875h.938a.469.469 0 10.937 0h.938a.469.469 0 10.937 0h.938a.469.469 0 10.937 0h2.875v1.406h-.938zM1.876 1.406a.47.47 0 01.938 0v11.781h-.938V1.408zm13.188 13.656H.937v-.937h14.126v.938z" fill="#1D1D1B"/>
</svg>
