<svg width="23" height="21" viewBox="0 0 23 21" fill="none" xmlns="http://www.w3.org/2000/svg">
<path d="M19 15C18.3793 15.0032 17.7748 15.1989 17.27 15.56L14.82 14.11C14.9356 13.7512 14.9963 13.377 15 13C14.9971 12.1154 14.7011 11.2568 14.1583 10.5584C13.6155 9.85994 12.8565 9.36114 12 9.14001V6.82C12.6672 6.58411 13.2296 6.11994 13.5876 5.50952C13.9457 4.89911 14.0765 4.18177 13.9568 3.48427C13.8371 2.78678 13.4747 2.15404 12.9337 1.6979C12.3926 1.24176 11.7077 0.991577 11 0.991577C10.2923 0.991577 9.60741 1.24176 9.06634 1.6979C8.52527 2.15404 8.16288 2.78678 8.04321 3.48427C7.92353 4.18177 8.05429 4.89911 8.41237 5.50952C8.77045 6.11994 9.33279 6.58411 10 6.82V9.14001C9.14353 9.36114 8.38451 9.85994 7.84169 10.5584C7.29887 11.2568 7.00287 12.1154 7 13C7.00372 13.377 7.0644 13.7512 7.18 14.11L4.73 15.56C4.22516 15.1989 3.62072 15.0032 3 15C2.40666 15 1.82664 15.176 1.33329 15.5056C0.839943 15.8352 0.455426 16.3038 0.228363 16.852C0.00129986 17.4001 -0.0581102 18.0033 0.0576455 18.5853C0.173401 19.1672 0.459123 19.7018 0.878681 20.1213C1.29824 20.5409 1.83279 20.8266 2.41473 20.9424C2.99667 21.0581 3.59987 20.9987 4.14805 20.7716C4.69623 20.5446 5.16477 20.1601 5.49441 19.6667C5.82405 19.1734 6 18.5933 6 18C5.9963 17.7291 5.95594 17.46 5.88 17.2L8.18 15.83C8.92945 16.575 9.94326 16.9932 11 16.9932C12.0567 16.9932 13.0706 16.575 13.82 15.83L16.12 17.2C15.9524 17.8056 15.9793 18.4485 16.1967 19.0381C16.4141 19.6276 16.8112 20.134 17.3318 20.4858C17.8525 20.8376 18.4705 21.017 19.0986 20.9987C19.7267 20.9805 20.3332 20.7654 20.8325 20.384C21.3318 20.0026 21.6988 19.474 21.8816 18.8728C22.0644 18.2716 22.0538 17.6282 21.8514 17.0334C21.6489 16.4385 21.2648 15.9223 20.7532 15.5574C20.2416 15.1926 19.6284 14.9976 19 15ZM3 19C2.80222 19 2.60888 18.9414 2.44443 18.8315C2.27998 18.7216 2.15181 18.5654 2.07612 18.3827C2.00043 18.2 1.98063 17.9989 2.01922 17.8049C2.0578 17.6109 2.15304 17.4327 2.29289 17.2929C2.43275 17.153 2.61093 17.0578 2.80491 17.0192C2.99889 16.9806 3.19996 17.0004 3.38268 17.0761C3.56541 17.1518 3.72159 17.28 3.83147 17.4444C3.94135 17.6089 4 17.8022 4 18C4 18.2652 3.89464 18.5196 3.70711 18.7071C3.51957 18.8946 3.26522 19 3 19ZM11 3C11.1978 3 11.3911 3.05865 11.5556 3.16853C11.72 3.27842 11.8482 3.43459 11.9239 3.61732C11.9996 3.80005 12.0194 4.00111 11.9808 4.19509C11.9422 4.38908 11.847 4.56726 11.7071 4.70711C11.5673 4.84696 11.3891 4.9422 11.1951 4.98079C11.0011 5.01937 10.8 4.99957 10.6173 4.92388C10.4346 4.8482 10.2784 4.72002 10.1685 4.55557C10.0587 4.39113 10 4.19779 10 4C10 3.73479 10.1054 3.48043 10.2929 3.2929C10.4804 3.10536 10.7348 3 11 3ZM11 15C10.6044 15 10.2178 14.8827 9.88886 14.6629C9.55996 14.4432 9.30362 14.1308 9.15224 13.7654C9.00087 13.3999 8.96126 12.9978 9.03843 12.6098C9.1156 12.2219 9.30608 11.8655 9.58579 11.5858C9.86549 11.3061 10.2219 11.1156 10.6098 11.0384C10.9978 10.9613 11.3999 11.0009 11.7654 11.1522C12.1308 11.3036 12.4432 11.56 12.6629 11.8889C12.8827 12.2178 13 12.6044 13 13C13 13.5304 12.7893 14.0391 12.4142 14.4142C12.0391 14.7893 11.5304 15 11 15ZM19 19C18.8022 19 18.6089 18.9414 18.4444 18.8315C18.28 18.7216 18.1518 18.5654 18.0761 18.3827C18.0004 18.2 17.9806 17.9989 18.0192 17.8049C18.0578 17.6109 18.153 17.4327 18.2929 17.2929C18.4327 17.153 18.6109 17.0578 18.8049 17.0192C18.9989 16.9806 19.2 17.0004 19.3827 17.0761C19.5654 17.1518 19.7216 17.28 19.8315 17.4444C19.9414 17.6089 20 17.8022 20 18C20 18.2652 19.8946 18.5196 19.7071 18.7071C19.5196 18.8946 19.2652 19 19 19Z" fill="#808080"/>
</svg>
