<svg width="28" height="24" viewBox="0 0 28 24" fill="none" xmlns="http://www.w3.org/2000/svg">
<path d="M8.74287 13.1947L9.21072 15.3695H23.4863H23.4869V15.4445C23.8 15.4402 24.088 15.7186 24.088 16.0257C24.088 16.3328 23.8 16.6112 23.4869 16.6069L8.74287 13.1947ZM8.74287 13.1947L24.6723 13.1947L24.6731 13.1947C24.9718 13.1915 25.2534 12.9715 25.3196 12.6827L8.74287 13.1947ZM8.67032 16.6819H23.4864L5.992 0.787453C5.93326 0.53057 5.67699 0.331146 5.40852 0.333393V0.258393H5.40821H1.25939C0.891997 0.258393 0.591656 0.5508 0.591656 0.914589C0.591656 1.27838 0.891997 1.57079 1.25939 1.57079H4.86637L7.97233 15.976C7.95838 16.1632 8.03917 16.3423 8.16563 16.4719C8.29442 16.6038 8.47677 16.6908 8.67032 16.6819ZM8.46052 11.8823L6.86287 4.47677H25.9109L24.1408 11.8823H8.46052ZM11.6322 17.6943C10.1261 17.6943 8.88991 18.9043 8.88991 20.3847C8.88991 21.865 10.1261 23.075 11.6322 23.075C13.1383 23.075 14.3745 21.865 14.3745 20.3847C14.3745 18.9043 13.1383 17.6943 11.6322 17.6943ZM20.5232 17.6943C19.0171 17.6943 17.7809 18.9043 17.7809 20.3847C17.7809 21.865 19.0171 23.075 20.5232 23.075C22.0293 23.075 23.2655 21.865 23.2655 20.3847C23.2655 18.9043 22.0293 17.6943 20.5232 17.6943ZM11.6322 19.0067C12.4176 19.0067 13.039 19.6181 13.039 20.3847C13.039 21.1512 12.4176 21.7626 11.6322 21.7626C10.8469 21.7626 10.2254 21.1512 10.2254 20.3847C10.2254 19.6181 10.8469 19.0067 11.6322 19.0067ZM20.5232 19.0067C21.3086 19.0067 21.93 19.6181 21.93 20.3847C21.93 21.1512 21.3086 21.7626 20.5232 21.7626C19.7378 21.7626 19.1164 21.1512 19.1164 20.3847C19.1164 19.6181 19.7378 19.0067 20.5232 19.0067Z" fill="#22C6B6" stroke="#22C6B6" stroke-width="0.15"/>
</svg>
