<svg width="20" height="20" viewBox="0 0 20 20" fill="none" xmlns="http://www.w3.org/2000/svg">
<path d="M19.1841 0H1.21814C0.996798 0 0.817383 0.178359 0.817383 0.398398V19.6016C0.817383 19.8216 0.996798 20 1.21814 20H19.1841C19.4054 20 19.5848 19.8216 19.5848 19.6016V0.398398C19.5848 0.178359 19.4054 0 19.1841 0ZM18.7833 19.2032H1.61889V0.796797H18.7833V19.2032Z" fill="#005BFF"/>
<path d="M17.0773 2.26949H3.26477C3.04343 2.26949 2.86401 2.44785 2.86401 2.66789V6.29027C2.86401 6.51031 3.04343 6.68867 3.26477 6.68867H17.0773C17.2986 6.68867 17.4781 6.51031 17.4781 6.29027V2.66789C17.4781 2.44785 17.2986 2.26949 17.0773 2.26949ZM16.6765 5.89188H3.66552V3.06629H16.6765V5.89188Z" fill="#005BFF"/>
<path d="M6.89242 7.8558H3.24857C3.02723 7.8558 2.84781 8.03416 2.84781 8.2542V11.8766C2.84781 12.0967 3.02723 12.275 3.24857 12.275H6.89242C7.11376 12.275 7.29318 12.0967 7.29318 11.8766V8.2542C7.29318 8.03416 7.11376 7.8558 6.89242 7.8558ZM6.49167 11.4782H3.64932V8.6526H6.49167V11.4782Z" fill="#005BFF"/>
<path d="M12.446 7.8558H8.80217C8.58083 7.8558 8.40142 8.03416 8.40142 8.2542V11.8766C8.40142 12.0967 8.58083 12.275 8.80217 12.275H12.446C12.6673 12.275 12.8468 12.0967 12.8468 11.8766V8.2542C12.8468 8.03416 12.6673 7.8558 12.446 7.8558ZM12.0453 11.4782H9.20293V8.6526H12.0453V11.4782Z" fill="#005BFF"/>
<path d="M6.89242 13.3549H3.24857C3.02723 13.3549 2.84781 13.5333 2.84781 13.7533V17.3757C2.84781 17.5958 3.02723 17.7741 3.24857 17.7741H6.89242C7.11376 17.7741 7.29318 17.5958 7.29318 17.3757V13.7533C7.29318 13.5333 7.11376 13.3549 6.89242 13.3549ZM6.49167 16.9774H3.64932V14.1518H6.49167V16.9774Z" fill="#005BFF"/>
<path d="M12.446 13.3549H8.80217C8.58083 13.3549 8.40142 13.5333 8.40142 13.7533V17.3757C8.40142 17.5958 8.58083 17.7741 8.80217 17.7741H12.446C12.6673 17.7741 12.8468 17.5958 12.8468 17.3757V13.7533C12.8468 13.5333 12.6673 13.3549 12.446 13.3549ZM12.0453 16.9774H9.20293V14.1518H12.0453V16.9774Z" fill="#005BFF"/>
<path d="M17.1873 11.3474H14.3776C14.1563 11.3474 13.9768 11.5257 13.9768 11.7458V17.3758C13.9768 17.5959 14.1563 17.7742 14.3776 17.7742H17.1873C17.4087 17.7742 17.5881 17.5959 17.5881 17.3758V11.7458C17.5881 11.5257 17.4086 11.3474 17.1873 11.3474ZM16.7866 16.9774H14.7784V12.1442H16.7866V16.9774Z" fill="#005BFF"/>
<path d="M17.1873 7.81222H14.3776C14.1563 7.81222 13.9768 7.99058 13.9768 8.21062V9.82543C13.9768 10.0455 14.1563 10.2238 14.3776 10.2238H17.1873C17.4087 10.2238 17.5881 10.0455 17.5881 9.82543V8.21062C17.5881 7.99058 17.4086 7.81222 17.1873 7.81222ZM16.7866 9.42703H14.7784V8.60902H16.7866V9.42703Z" fill="#005BFF"/>
<path d="M12.8191 4.14614H5.26804C5.04669 4.14614 4.86728 4.3245 4.86728 4.54454C4.86728 4.76458 5.04669 4.94294 5.26804 4.94294H12.8191C13.0405 4.94294 13.2199 4.76458 13.2199 4.54454C13.2199 4.3245 13.0404 4.14614 12.8191 4.14614Z" fill="#005BFF"/>
<path d="M14.7945 4.14614H14.3116C14.0903 4.14614 13.9109 4.3245 13.9109 4.54454C13.9109 4.76458 14.0903 4.94294 14.3116 4.94294H14.7945C15.0159 4.94294 15.1953 4.76458 15.1953 4.54454C15.1953 4.3245 15.0158 4.14614 14.7945 4.14614Z" fill="#005BFF"/>
</svg>
