<svg width="15" height="20" viewBox="0 0 15 20" fill="none" xmlns="http://www.w3.org/2000/svg">
<path d="M13.4022 7.2841C12.7611 6.59379 11.8515 6.19785 10.9065 6.19785H10.6686V4.55613H11.9287C12.15 4.55613 12.3295 4.37773 12.3295 4.15773V0.398398C12.3295 0.178398 12.15 0 11.9287 0H2.4747C2.2534 0 2.07394 0.178398 2.07394 0.398398V4.15773C2.07394 4.37773 2.2534 4.55613 2.4747 4.55613H3.73477V6.19785H3.49692C2.55187 6.19785 1.64226 6.59379 1.00127 7.2841C0.36023 7.97441 0.035861 8.90742 0.111344 9.84387L0.899928 19.6334C0.916589 19.8405 1.0905 20 1.29943 20H13.1041C13.3131 20 13.4869 19.8404 13.5036 19.6334L14.2922 9.84387C14.3676 8.90742 14.0432 7.97441 13.4022 7.2841ZM2.87546 3.75934V0.796836H11.528V3.75934H10.3109V2.22727C10.3109 2.00727 10.1315 1.82887 9.91016 1.82887C9.68886 1.82887 9.5094 2.00727 9.5094 2.22727V3.75934H7.60248V2.22727C7.60248 2.00727 7.42303 1.82887 7.20173 1.82887C6.98042 1.82887 6.80093 2.00727 6.80093 2.22727V3.75934H4.89401V2.22727C4.89401 2.00727 4.71456 1.82887 4.49325 1.82887C4.27195 1.82887 4.0925 2.00727 4.0925 2.22727V3.75934H2.87546ZM9.86713 4.55613V6.19785H4.53632V4.55613H9.86713ZM13.4931 9.78027L12.7341 19.2032H1.66934L0.910262 9.78027C0.851794 9.05426 1.09325 8.35977 1.5902 7.82457C2.08715 7.28934 2.76433 6.99465 3.49696 6.99465H10.9064C11.6391 6.99465 12.3163 7.28934 12.8132 7.82457C13.3101 8.35977 13.5516 9.05426 13.4931 9.78027Z" fill="#005BFF"/>
<path d="M11.2902 12.2941H3.11372C2.89242 12.2941 2.71296 12.4725 2.71296 12.6925V17.1631C2.71296 17.3831 2.89242 17.5615 3.11372 17.5615H11.2901C11.5114 17.5615 11.6909 17.3831 11.6909 17.1631V12.6925C11.6909 12.4725 11.5115 12.2941 11.2902 12.2941ZM3.51447 16.7647V13.0909H10.8894V16.7647H3.51447Z" fill="#005BFF"/>
<path d="M9.55242 14.5802H9.39913C9.17783 14.5802 8.99838 14.7586 8.99838 14.9786C8.99838 15.1986 9.17783 15.377 9.39913 15.377H9.55242C9.77372 15.377 9.95318 15.1986 9.95318 14.9786C9.95318 14.7586 9.77372 14.5802 9.55242 14.5802Z" fill="#005BFF"/>
<path d="M8.20467 14.5802H4.85095C4.62965 14.5802 4.4502 14.7586 4.4502 14.9786C4.4502 15.1986 4.62961 15.377 4.85095 15.377H8.20467C8.42598 15.377 8.60543 15.1986 8.60543 14.9786C8.60543 14.7586 8.42598 14.5802 8.20467 14.5802Z" fill="#005BFF"/>
</svg>
