<svg width="14" height="14" viewBox="0 0 14 14" fill="none" xmlns="http://www.w3.org/2000/svg">
<path d="M6.99992 0.333344C5.68138 0.333344 4.39245 0.724337 3.29612 1.45688C2.19979 2.18942 1.34531 3.23061 0.840725 4.44879C0.336141 5.66696 0.204118 7.00741 0.461353 8.30061C0.718588 9.59382 1.35353 10.7817 2.28588 11.7141C3.21823 12.6464 4.40611 13.2813 5.69932 13.5386C6.99253 13.7958 8.33297 13.6638 9.55114 13.1592C10.7693 12.6546 11.8105 11.8001 12.5431 10.7038C13.2756 9.60748 13.6666 8.31855 13.6666 7.00001C13.6666 6.12453 13.4941 5.25762 13.1591 4.44879C12.8241 3.63995 12.333 2.90502 11.714 2.28596C11.0949 1.66691 10.36 1.17584 9.55114 0.840813C8.74231 0.505782 7.8754 0.333344 6.99992 0.333344ZM6.99992 12.3333C5.94509 12.3333 4.91394 12.0205 4.03688 11.4345C3.15982 10.8485 2.47623 10.0155 2.07256 9.04099C1.6689 8.06645 1.56328 6.99409 1.76907 5.95953C1.97485 4.92496 2.48281 3.97465 3.22869 3.22877C3.97457 2.48289 4.92487 1.97494 5.95944 1.76916C6.99401 1.56337 8.06636 1.66899 9.0409 2.07265C10.0154 2.47632 10.8484 3.15991 11.4344 4.03697C12.0205 4.91403 12.3333 5.94518 12.3333 7.00001C12.3333 8.4145 11.7714 9.77105 10.7712 10.7712C9.77096 11.7714 8.41441 12.3333 6.99992 12.3333ZM9.66659 6.33334H7.66659V4.33334C7.66659 4.15653 7.59635 3.98696 7.47133 3.86194C7.3463 3.73691 7.17673 3.66668 6.99992 3.66668C6.82311 3.66668 6.65354 3.73691 6.52852 3.86194C6.40349 3.98696 6.33325 4.15653 6.33325 4.33334V6.33334H4.33325C4.15644 6.33334 3.98687 6.40358 3.86185 6.52861C3.73683 6.65363 3.66659 6.8232 3.66659 7.00001C3.66659 7.17682 3.73683 7.34639 3.86185 7.47141C3.98687 7.59644 4.15644 7.66668 4.33325 7.66668H6.33325V9.66668C6.33325 9.84349 6.40349 10.0131 6.52852 10.1381C6.65354 10.2631 6.82311 10.3333 6.99992 10.3333C7.17673 10.3333 7.3463 10.2631 7.47133 10.1381C7.59635 10.0131 7.66659 9.84349 7.66659 9.66668V7.66668H9.66659C9.8434 7.66668 10.013 7.59644 10.138 7.47141C10.263 7.34639 10.3333 7.17682 10.3333 7.00001C10.3333 6.8232 10.263 6.65363 10.138 6.52861C10.013 6.40358 9.8434 6.33334 9.66659 6.33334Z" fill="white"/>
</svg>
