<svg width="21" height="16" viewBox="0 0 21 16" fill="none" xmlns="http://www.w3.org/2000/svg">
<path d="M20.1435 4.8627L19.6826 4.40446V1.52228C19.6826 1.30228 19.5031 1.12388 19.2818 1.12388H16.3826L15.883 0.62728C15.7265 0.471733 15.4728 0.471733 15.3162 0.62728C15.1806 0.762163 15.1627 0.969662 15.2623 1.12388H5.14116C5.24073 0.969662 5.22293 0.762163 5.08721 0.62728C4.93067 0.471733 4.67699 0.471733 4.5204 0.62728L4.02094 1.12388H1.12167C0.900364 1.12388 0.720911 1.30228 0.720911 1.52228V4.40446L0.259958 4.86274C0.103452 5.01833 0.103452 5.27059 0.259958 5.42622C0.338231 5.50399 0.440787 5.5429 0.543343 5.5429C0.604287 5.5429 0.665114 5.52883 0.720911 5.50137V15.091C0.720911 15.311 0.900364 15.4894 1.12167 15.4894H19.2818C19.5031 15.4894 19.6826 15.311 19.6826 15.091V5.50133C19.7384 5.52879 19.7992 5.54286 19.8601 5.54286C19.9627 5.54286 20.0652 5.50395 20.1435 5.42618C20.3 5.27059 20.3 5.01829 20.1435 4.8627ZM1.52246 1.92071H3.21939L1.52246 3.6077V1.92071ZM18.8811 14.6926H1.52246V12.8446H18.8811V14.6926ZM18.8811 12.0478H1.52246V4.73454L4.35297 1.92068H16.0505L18.8811 4.73454V12.0478ZM18.8811 3.60766L17.1841 1.92068H18.8811V3.60766Z" fill="#005BFF"/>
<path d="M13.4016 10.783H13.016C12.7947 10.783 12.6152 10.9614 12.6152 11.1814C12.6152 11.4014 12.7947 11.5798 13.016 11.5798H13.4016C13.6229 11.5798 13.8023 11.4014 13.8023 11.1814C13.8024 10.9614 13.6229 10.783 13.4016 10.783Z" fill="#005BFF"/>
<path d="M11.4739 10.783H2.37455C2.15324 10.783 1.97379 10.9614 1.97379 11.1814C1.97379 11.4014 2.15324 11.5798 2.37455 11.5798H11.4739C11.6952 11.5798 11.8747 11.4014 11.8747 11.1814C11.8747 10.9614 11.6952 10.783 11.4739 10.783Z" fill="#005BFF"/>
</svg>
