<svg width="17" height="20" viewBox="0 0 17 20" fill="none" xmlns="http://www.w3.org/2000/svg">
<path d="M6.19697 1.97563H2.65411C2.43277 1.97563 2.25335 2.15403 2.25335 2.37403V11.3829C2.25335 11.6029 2.43277 11.7813 2.65411 11.7813H6.19693C6.41828 11.7813 6.59769 11.6029 6.59769 11.3829V2.37403C6.59773 2.15399 6.41832 1.97563 6.19697 1.97563ZM3.05486 10.9845V2.77243H5.79618V10.9845H3.05486Z" fill="#005BFF"/>
<path d="M4.4254 14.264C3.52499 14.264 2.79247 14.9922 2.79247 15.8873C2.79247 16.7824 3.52499 17.5107 4.4254 17.5107C5.32581 17.5107 6.05833 16.7825 6.05833 15.8873C6.05833 14.9922 5.32581 14.264 4.4254 14.264ZM4.4254 16.7139C3.967 16.7139 3.59403 16.3431 3.59403 15.8874C3.59403 15.4317 3.96696 15.0609 4.4254 15.0609C4.88384 15.0609 5.25678 15.4317 5.25678 15.8874C5.25678 16.3431 4.88384 16.7139 4.4254 16.7139Z" fill="#005BFF"/>
<path d="M15.7535 0H0.649779C0.428438 0 0.249023 0.178398 0.249023 0.398398V19.6016C0.249023 19.8216 0.428438 20 0.649779 20H15.7535C15.9748 20 16.1542 19.8216 16.1542 19.6016V0.398398C16.1542 0.178398 15.9748 0 15.7535 0ZM7.80087 19.2032H1.05057V0.796797H7.80087V19.2032ZM15.3528 19.2032H8.60238V0.796797H15.3527L15.3528 19.2032Z" fill="#005BFF"/>
<path d="M13.7488 1.97563H10.2059C9.98465 1.97563 9.80519 2.15403 9.80519 2.37403V11.3829C9.80519 11.6029 9.98465 11.7813 10.2059 11.7813H13.7488C13.9701 11.7813 14.1495 11.6029 14.1495 11.3829V2.37403C14.1496 2.15403 13.9701 1.97563 13.7488 1.97563ZM13.348 10.9845H10.6067V2.77243H13.348V10.9845Z" fill="#005BFF"/>
<path d="M11.9773 14.264C11.0769 14.264 10.3444 14.9922 10.3444 15.8873C10.3444 16.7824 11.0769 17.5107 11.9773 17.5107C12.8777 17.5107 13.6103 16.7825 13.6103 15.8873C13.6102 14.9922 12.8777 14.264 11.9773 14.264ZM11.9773 16.7139C11.5189 16.7139 11.146 16.3431 11.146 15.8874C11.146 15.4317 11.5189 15.0609 11.9773 15.0609C12.4357 15.0609 12.8087 15.4317 12.8087 15.8874C12.8087 16.3431 12.4357 16.7139 11.9773 16.7139Z" fill="#005BFF"/>
<path d="M4.82318 3.55615H4.02827C3.80693 3.55615 3.62752 3.73455 3.62752 3.95455C3.62752 4.17455 3.80693 4.35295 4.02827 4.35295H4.82318C5.04453 4.35295 5.22394 4.17455 5.22394 3.95455C5.22394 3.73455 5.04453 3.55615 4.82318 3.55615Z" fill="#005BFF"/>
<path d="M4.82318 5.17615H4.02827C3.80693 5.17615 3.62752 5.35455 3.62752 5.57455C3.62752 5.79455 3.80693 5.97295 4.02827 5.97295H4.82318C5.04453 5.97295 5.22394 5.79455 5.22394 5.57455C5.22394 5.35455 5.04453 5.17615 4.82318 5.17615Z" fill="#005BFF"/>
<path d="M12.5732 6.24293C12.3521 6.24293 12.1729 6.42133 12.1729 6.64133V10.158C12.1729 10.378 12.3521 10.5564 12.5732 10.5564C12.7942 10.5564 12.9735 10.378 12.9735 10.158V6.64137C12.9735 6.42137 12.7943 6.24293 12.5732 6.24293Z" fill="#005BFF"/>
<path d="M12.5732 4.5045C12.3521 4.5045 12.1729 4.6829 12.1729 4.9029V5.33755C12.1729 5.55755 12.3521 5.73595 12.5732 5.73595C12.7942 5.73595 12.9735 5.55755 12.9735 5.33755V4.9029C12.9735 4.68286 12.7943 4.5045 12.5732 4.5045Z" fill="#005BFF"/>
</svg>
