<svg width="18" height="16" viewBox="0 0 18 16" fill="none" xmlns="http://www.w3.org/2000/svg">
<path d="M9.12387 2.73572L9.23511 3.08333H9.60008H14.8334C15.3638 3.08333 15.8726 3.29405 16.2476 3.66912C16.6227 4.04419 16.8334 4.5529 16.8334 5.08333V13.4167C16.8334 13.9471 16.6227 14.4558 16.2476 14.8309C15.8726 15.206 15.3638 15.4167 14.8334 15.4167H3.16675C2.63631 15.4167 2.12761 15.206 1.75253 14.8309L1.39898 15.1844L1.75253 14.8309C1.37746 14.4558 1.16675 13.9471 1.16675 13.4167V2.58333C1.16675 2.0529 1.37746 1.54419 1.75253 1.16912C2.12761 0.794045 2.63632 0.583332 3.16675 0.583332L6.96675 0.583335L6.96868 0.583328C7.38358 0.581728 7.78871 0.709207 8.12794 0.948102L8.41583 0.539299L8.12794 0.948102C8.46524 1.18563 8.72078 1.52162 8.85963 1.90998L9.12387 2.73572ZM8.23333 2.16029L8.23335 2.16028L6.96675 1.25H6.96618H3.16675C2.81313 1.25 2.47399 1.39047 2.22394 1.64052C1.97389 1.89057 1.83341 2.22971 1.83341 2.58333V13.4167C1.83341 13.7703 1.97389 14.1094 2.22394 14.3595C2.47399 14.6095 2.81313 14.75 3.16675 14.75H14.8334C15.187 14.75 15.5262 14.6095 15.7762 14.3595C16.0263 14.1094 16.1667 13.7703 16.1667 13.4167V5.08333C16.1667 4.72971 16.0263 4.39057 15.7762 4.14052C15.5262 3.89047 15.187 3.75 14.8334 3.75L9.00008 3.75L8.99879 3.75C8.92891 3.75018 8.86074 3.72839 8.80391 3.68772C8.74749 3.64733 8.70508 3.59034 8.6826 3.52472C8.68244 3.52426 8.68228 3.52379 8.68212 3.52333L8.23333 2.16029Z" fill="black" stroke="white"/>
</svg>
