<svg width="68" height="24" viewBox="0 0 64 24" fill="none" xmlns="http://www.w3.org/2000/svg">
<path d="M13.1914 14.2842H4.75391V23H0.359375V1.67188H14.2461V5.23145H4.75391V10.7393H13.1914V14.2842ZM20.9844 23H16.7363V7.15039H20.9844V23ZM16.4873 3.04883C16.4873 2.41406 16.6973 1.8916 17.1172 1.48145C17.5469 1.07129 18.1279 0.866211 18.8604 0.866211C19.583 0.866211 20.1592 1.07129 20.5889 1.48145C21.0186 1.8916 21.2334 2.41406 21.2334 3.04883C21.2334 3.69336 21.0137 4.2207 20.5742 4.63086C20.1445 5.04102 19.5732 5.24609 18.8604 5.24609C18.1475 5.24609 17.5713 5.04102 17.1318 4.63086C16.7021 4.2207 16.4873 3.69336 16.4873 3.04883ZM28.9531 23H24.7051V0.5H28.9531V23ZM36.4238 7.15039L36.5557 8.92285C37.6787 7.5459 39.1973 6.85742 41.1113 6.85742C43.1523 6.85742 44.5537 7.66309 45.3154 9.27441C46.4287 7.66309 48.0156 6.85742 50.0762 6.85742C51.7949 6.85742 53.0742 7.36035 53.9141 8.36621C54.7539 9.3623 55.1738 10.8662 55.1738 12.8779V23H50.9258V12.8926C50.9258 11.9941 50.75 11.3398 50.3984 10.9297C50.0469 10.5098 49.4268 10.2998 48.5381 10.2998C47.2686 10.2998 46.3896 10.9053 45.9014 12.1162L45.916 23H41.6826V12.9072C41.6826 11.9893 41.502 11.3252 41.1406 10.915C40.7793 10.5049 40.1641 10.2998 39.2949 10.2998C38.0938 10.2998 37.2246 10.7979 36.6875 11.7939V23H32.4541V7.15039H36.4238ZM58.6602 20.9199C58.6602 20.2461 58.8848 19.6992 59.334 19.2793C59.793 18.8594 60.3643 18.6494 61.0479 18.6494C61.7412 18.6494 62.3125 18.8594 62.7617 19.2793C63.2207 19.6992 63.4502 20.2461 63.4502 20.9199C63.4502 21.584 63.2256 22.126 62.7764 22.5459C62.3271 22.9561 61.751 23.1611 61.0479 23.1611C60.3545 23.1611 59.7832 22.9561 59.334 22.5459C58.8848 22.126 58.6602 21.584 58.6602 20.9199Z" fill="#5671F6"/>
</svg>
