<svg width="16" height="20" viewBox="0 0 16 20" fill="none" xmlns="http://www.w3.org/2000/svg">
<path d="M7.78713 2.89832C7.09122 2.89832 6.41094 3.10468 5.83232 3.4913C5.25369 3.87793 4.8027 4.42745 4.53639 5.07039C4.27008 5.71333 4.2004 6.42079 4.33616 7.10333C4.47193 7.78587 4.80704 8.41282 5.29912 8.9049C5.7912 9.39698 6.41815 9.73209 7.10069 9.86786C7.78323 10.0036 8.4907 9.93394 9.13363 9.66763C9.77657 9.40132 10.3261 8.95033 10.7127 8.37171C11.0993 7.79308 11.3057 7.1128 11.3057 6.41689C11.3057 5.48371 10.935 4.58874 10.2751 3.92888C9.61528 3.26902 8.72032 2.89832 7.78713 2.89832ZM7.78713 8.70734C7.33412 8.70734 6.89129 8.57301 6.51463 8.32133C6.13796 8.06965 5.84439 7.71193 5.67103 7.29341C5.49767 6.87488 5.45231 6.41435 5.54069 5.97005C5.62907 5.52574 5.84721 5.11762 6.16754 4.7973C6.48786 4.47697 6.89598 4.25883 7.34029 4.17045C7.78459 4.08207 8.24512 4.12743 8.66365 4.30079C9.08218 4.47415 9.43989 4.76772 9.69157 5.14438C9.94325 5.52105 10.0776 5.96388 10.0776 6.41689C10.076 7.02329 9.83393 7.6043 9.40456 8.03252C8.97519 8.46073 8.39353 8.7012 7.78713 8.7012V8.70734Z" fill="white"/>
<path d="M7.7859 6.07873e-10C5.87322 0.00159753 4.03888 0.760016 2.68354 2.10961C1.32819 3.4592 0.561979 5.29029 0.552246 7.20295C0.552246 10.0706 2.16109 12.4716 3.34009 14.2217L3.55501 14.541C4.72804 16.2411 5.98643 17.8807 7.32535 19.4535L7.79204 20L8.25873 19.4535C9.59747 17.8806 10.8559 16.241 12.0291 14.541L12.244 14.2155C13.4168 12.4655 15.0257 10.0706 15.0257 7.20295C15.016 5.28923 14.2489 3.45721 12.8922 2.10744C11.5356 0.757677 9.69964 -2.47811e-05 7.7859 6.07873e-10ZM11.2185 13.5094L10.9974 13.8348C9.94126 15.4191 8.54119 17.1937 7.7859 18.0718C7.0613 17.1937 5.63054 15.4191 4.57435 13.8348L4.35943 13.5094C3.27254 11.8882 1.78037 9.67148 1.78037 7.17838C1.78037 6.38973 1.93571 5.60879 2.23751 4.88017C2.53932 4.15155 2.98168 3.4895 3.53935 2.93184C4.09701 2.37417 4.75906 1.93181 5.48768 1.63C6.21631 1.3282 6.99724 1.17286 7.7859 1.17286C8.57455 1.17286 9.35549 1.3282 10.0841 1.63C10.8127 1.93181 11.4748 2.37417 12.0324 2.93184C12.5901 3.4895 13.0325 4.15155 13.3343 4.88017C13.6361 5.60879 13.7914 6.38973 13.7914 7.17838C13.7914 9.69604 12.3054 11.9128 11.2185 13.5094Z" fill="white"/>
</svg>
