<svg width="18" height="20" viewBox="0 0 18 20" fill="none" xmlns="http://www.w3.org/2000/svg">
<path d="M17.4356 0H2.22518C2.00388 0 1.82443 0.178398 1.82443 0.398398V1.66621H0.968139C0.746837 1.66621 0.567383 1.84461 0.567383 2.06461C0.567383 2.28461 0.746837 2.46301 0.968139 2.46301H1.82443V5.5818H0.968139C0.746837 5.5818 0.567383 5.7602 0.567383 5.9802C0.567383 6.2002 0.746837 6.37859 0.968139 6.37859H1.82443V9.49734H0.968139C0.746837 9.49734 0.567383 9.67574 0.567383 9.89574C0.567383 10.1157 0.746837 10.2941 0.968139 10.2941H1.82443V13.4129H0.968139C0.746837 13.4129 0.567383 13.5913 0.567383 13.8113C0.567383 14.0313 0.746837 14.2097 0.968139 14.2097H1.82443V17.3285H0.968139C0.746837 17.3285 0.567383 17.5069 0.567383 17.7269C0.567383 17.9469 0.746837 18.1253 0.968139 18.1253H1.82443V19.6014C1.82443 19.8214 2.00388 19.9998 2.22518 19.9998H17.4356C17.6569 19.9998 17.8363 19.8214 17.8363 19.6014V0.398398C17.8364 0.178398 17.6569 0 17.4356 0ZM4.58999 19.2032H2.62594V18.1255H3.48226C3.70357 18.1255 3.88302 17.9471 3.88302 17.7271C3.88302 17.5071 3.70357 17.3287 3.48226 17.3287H2.62594V14.2099H3.48226C3.70357 14.2099 3.88302 14.0315 3.88302 13.8115C3.88302 13.5915 3.70357 13.4131 3.48226 13.4131H2.62594V10.2943H3.48226C3.70357 10.2943 3.88302 10.1159 3.88302 9.89594C3.88302 9.67594 3.70357 9.49754 3.48226 9.49754H2.62594V6.37879H3.48226C3.70357 6.37879 3.88302 6.20039 3.88302 5.98039C3.88302 5.76039 3.70357 5.58199 3.48226 5.58199H2.62594V2.46305H3.48226C3.70357 2.46305 3.88302 2.28465 3.88302 2.06465C3.88302 1.84465 3.70357 1.66625 3.48226 1.66625H2.62594V0.796797H4.58995L4.58999 19.2032ZM17.0348 19.2032H5.3915V0.796797H17.0348V19.2032Z" fill="#005BFF"/>
<path d="M14.4929 3.1241H7.93296C7.71166 3.1241 7.53221 3.3025 7.53221 3.5225V7.64641C7.53221 7.86641 7.71162 8.04481 7.93296 8.04481H14.4929C14.7142 8.04481 14.8937 7.86641 14.8937 7.64641V3.5225C14.8937 3.3025 14.7142 3.1241 14.4929 3.1241ZM14.0922 7.24801H8.33376V3.9209H14.0922V7.24801Z" fill="#005BFF"/>
<path d="M13.0776 4.58211H12.7843C12.563 4.58211 12.3836 4.76051 12.3836 4.98051C12.3836 5.20051 12.563 5.37891 12.7843 5.37891H13.0776C13.2989 5.37891 13.4784 5.20051 13.4784 4.98051C13.4784 4.76051 13.2989 4.58211 13.0776 4.58211Z" fill="#005BFF"/>
<path d="M11.4435 4.58211H9.43219C9.21089 4.58211 9.03144 4.76051 9.03144 4.98051C9.03144 5.20051 9.21089 5.37891 9.43219 5.37891H11.4435C11.6648 5.37891 11.8443 5.20051 11.8443 4.98051C11.8443 4.76051 11.6648 4.58211 11.4435 4.58211Z" fill="#005BFF"/>
</svg>
