<svg width="18" height="20" viewBox="0 0 18 20" fill="none" xmlns="http://www.w3.org/2000/svg">
<path d="M17.438 0H3.98124C1.87648 0 0.164062 1.71234 0.164062 3.81718V16.1829C0.164062 18.2876 1.8764 20 3.98124 20C6.08608 20 7.79842 18.2877 7.79842 16.1829V15.7811H13.7526C13.8582 15.7811 13.9595 15.7391 14.0343 15.6645L17.7197 11.979C17.7944 11.9043 17.8364 11.8029 17.8364 11.6973V0.398398C17.8364 0.178359 17.6581 0 17.438 0ZM7.00159 6.14882V16.1828C7.00159 17.8482 5.64663 19.2031 3.98124 19.2031C2.31586 19.2031 0.960897 17.8482 0.960897 16.1828V6.14882C1.65961 7.05202 2.75359 7.63428 3.98124 7.63428C5.2089 7.63428 6.30288 7.05202 7.00159 6.14882ZM3.98124 6.83753C2.31582 6.83753 0.960897 5.48265 0.960897 3.81718C0.960897 2.15171 2.31589 0.796834 3.98124 0.796834C5.64667 0.796834 7.00159 2.15171 7.00159 3.81718C7.00159 5.48265 5.64663 6.83753 3.98124 6.83753ZM14.151 14.4208V12.0956H16.4762L14.151 14.4208ZM17.0396 11.2988H13.7526C13.5326 11.2988 13.3542 11.4772 13.3542 11.6972V14.9843H7.79838V3.81718C7.79838 2.58953 7.21569 1.49558 6.31253 0.796834H17.0396V11.2988Z" fill="#005BFF"/>
<path d="M3.98113 2.61865C3.32027 2.61865 2.78262 3.1563 2.78262 3.81716C2.78262 4.47802 3.32031 5.01567 3.98113 5.01567C4.64199 5.01567 5.17968 4.47798 5.17968 3.81716C5.17968 3.15634 4.64199 2.61865 3.98113 2.61865ZM3.98113 4.21884C3.75961 4.21884 3.57941 4.03864 3.57941 3.81712C3.57941 3.5956 3.75965 3.4154 3.98113 3.4154C4.20269 3.4154 4.38289 3.5956 4.38289 3.81712C4.38289 4.03864 4.20265 4.21884 3.98113 4.21884Z" fill="#005BFF"/>
<path d="M1.7892 14.2231C1.5692 14.2231 1.3908 14.4014 1.3908 14.6215V14.9003C1.3908 15.1204 1.5692 15.2987 1.7892 15.2987C2.0092 15.2987 2.1876 15.1204 2.1876 14.9003V14.6215C2.18764 14.4014 2.0092 14.2231 1.7892 14.2231Z" fill="#005BFF"/>
<path d="M1.7892 7.84859C1.5692 7.84859 1.3908 8.02695 1.3908 8.24699V13.3067C1.3908 13.5268 1.5692 13.7051 1.7892 13.7051C2.0092 13.7051 2.1876 13.5268 2.1876 13.3067V8.24699C2.18764 8.02695 2.0092 7.84859 1.7892 7.84859Z" fill="#005BFF"/>
</svg>
