<svg width="21" height="14" viewBox="0 0 21 14" fill="none" xmlns="http://www.w3.org/2000/svg">
<path d="M20.2392 9.02576L19.5674 2.68116C19.5459 2.47835 19.3739 2.32445 19.1688 2.32445H2.75934L1.15577 0.730307C0.999264 0.574761 0.745506 0.574761 0.589 0.730307C0.432493 0.885893 0.432493 1.13816 0.589 1.29378L1.62576 2.32445H1.23467C1.02956 2.32445 0.857571 2.47835 0.836078 2.68116L0.164315 9.02576C0.04667 10.1366 0.41041 11.2498 1.16214 12.08C1.91394 12.9101 2.98948 13.3863 4.11312 13.3863H16.2903C17.414 13.3863 18.4895 12.9101 19.2413 12.08C19.9931 11.2498 20.3568 10.1366 20.2392 9.02576ZM1.5955 3.12128H18.808L18.9525 4.4855H1.45106L1.5955 3.12128ZM18.6456 11.5468C18.0456 12.2094 17.1871 12.5894 16.2903 12.5894H4.11316C3.21636 12.5894 2.35788 12.2094 1.75787 11.5468C1.15785 10.8843 0.867552 9.9958 0.961424 9.10916L1.36662 5.28233H19.0368L19.442 9.10916C19.5359 9.99576 19.2456 10.8843 18.6456 11.5468Z" fill="#005BFF"/>
<path d="M15.0931 11.2388H14.6401C14.4188 11.2388 14.2393 11.4172 14.2393 11.6372C14.2393 11.8572 14.4187 12.0356 14.6401 12.0356H15.0931C15.3144 12.0356 15.4939 11.8572 15.4939 11.6372C15.4939 11.4172 15.3144 11.2388 15.0931 11.2388Z" fill="#005BFF"/>
<path d="M12.8287 11.2388H3.72577C3.50443 11.2388 3.32498 11.4172 3.32498 11.6372C3.32498 11.8572 3.50439 12.0356 3.72577 12.0356H12.8287C13.0501 12.0356 13.2295 11.8572 13.2295 11.6372C13.2295 11.4172 13.0501 11.2388 12.8287 11.2388Z" fill="#005BFF"/>
</svg>
