<svg width="16" height="15" viewBox="0 0 16 15" fill="none" xmlns="http://www.w3.org/2000/svg">
<path d="M5.91663 4.16663L3.41663 0.833292C2.53823 0.833292 1.83069 2.22218 1.58669 2.70829C1.0011 3.87496 4.03599 8.35065 5.49997 10.052C6.08556 11.2187 10.9166 13.75 12.5833 14.1666C13.7545 14.1666 14.006 12.8645 14.25 12.5C15.1284 11.9166 12.7383 10.2951 11.7623 9.68746C10.8839 9.10413 10.3273 10.052 10.0833 10.4166L8.83434 10.052L6.74997 8.74996L4.66663 5.83329L5.91663 4.16663Z" fill="#1B1B1F"/>
<path fill-rule="evenodd" clip-rule="evenodd" d="M3.14084 1.29818C3.13942 1.29892 3.13986 1.29884 3.14084 1.29818C3.10379 1.32318 3.01925 1.37708 2.91399 1.44418C2.80593 1.51307 2.67603 1.59588 2.55326 1.67564C2.28209 1.85181 2.05757 2.00572 1.99529 2.0636C1.9196 2.13395 1.87436 2.1844 1.83651 2.27664C1.79382 2.38069 1.74999 2.56708 1.74999 2.91895C1.74999 3.58849 2.01318 4.64956 2.76748 6.01709C3.62644 7.57435 4.92494 9.06755 5.68904 9.81275L5.69427 9.81786C6.4394 10.5705 7.85167 11.8438 9.31651 12.6494C11.1349 13.6495 11.8438 13.75 12.4775 13.75C12.8055 13.75 13.0071 13.7051 13.1326 13.657C13.2519 13.6112 13.3193 13.5562 13.3729 13.5029C13.679 13.1991 13.9058 12.8421 14.0573 12.5543C14.1324 12.4117 14.1873 12.2893 14.223 12.2039C14.232 12.1824 14.2398 12.1632 14.2463 12.1467C14.243 12.1212 14.2371 12.0887 14.2264 12.0526C14.199 11.9606 14.1433 11.8512 14.0217 11.7621C13.5626 11.4516 12.1022 10.542 11.7905 10.3708C11.7375 10.3417 11.6858 10.3094 11.6424 10.2822C11.6371 10.2788 11.6319 10.2755 11.6267 10.2723C11.5871 10.2474 11.5526 10.2257 11.5168 10.2046C11.4367 10.1577 11.3726 10.1282 11.3126 10.1131C11.2282 10.092 11.0816 10.0783 10.8166 10.2773C10.7147 10.37 10.4988 10.5413 10.24 10.6872C9.98266 10.8324 9.58857 11.0075 9.19579 10.9481C9.0689 10.9289 8.94381 10.8755 8.84096 10.8237C8.73115 10.7684 8.61354 10.6976 8.49471 10.6195C8.2567 10.4631 7.99055 10.262 7.73435 10.0559C7.22468 9.64597 6.72138 9.18946 6.51631 8.97464C6.49318 8.95041 6.46509 8.92119 6.43277 8.88756C6.20685 8.65248 5.77391 8.20199 5.37775 7.73465C5.15175 7.46804 4.92939 7.18632 4.7613 6.92848C4.67734 6.7997 4.60143 6.66857 4.54523 6.54221C4.49218 6.42294 4.44055 6.27289 4.44055 6.11613C4.44055 5.77526 4.5015 5.52987 4.63631 5.29732C4.69715 5.19236 4.76846 5.09809 4.83549 5.01215C4.85294 4.98978 4.87023 4.9678 4.88759 4.94575C4.94047 4.87855 4.9939 4.81065 5.05384 4.72888C5.08563 4.68553 5.12294 4.64175 5.15095 4.60889C5.15278 4.60674 5.15457 4.60464 5.15632 4.60258C5.18854 4.56474 5.21607 4.5322 5.24227 4.49779C5.29395 4.42991 5.32824 4.37001 5.3464 4.30903C5.37343 4.21829 5.39979 4.01087 5.09504 3.60434L5.08899 3.59627L5.08334 3.58792C4.88421 3.29364 4.65133 2.94268 4.42265 2.59804C4.11822 2.13925 3.82122 1.69166 3.62117 1.40389C3.57184 1.33292 3.5244 1.29844 3.48662 1.27978C3.44709 1.26026 3.40279 1.25064 3.35354 1.24999C3.30305 1.24933 3.25184 1.25829 3.20716 1.27197C3.16916 1.2836 3.14621 1.29539 3.14084 1.29818ZM14.6663 12.2135C15.0823 12.2369 15.0823 12.2367 15.0824 12.2365L15.0824 12.2352L15.0825 12.2334L15.0827 12.2293L15.0831 12.2187C15.0833 12.2107 15.0834 12.2007 15.0833 12.189C15.0831 12.1656 15.0821 12.1349 15.079 12.0984C15.0728 12.0257 15.0584 11.9271 15.0252 11.8153C14.9583 11.59 14.8124 11.3045 14.5045 11.0828L14.4997 11.0793L14.4948 11.076C14.0289 10.7602 12.5349 9.82893 12.1917 9.64041C12.1627 9.62449 12.1301 9.60438 12.0858 9.57659C12.081 9.57353 12.076 9.57038 12.0708 9.56713C12.0323 9.5429 11.9862 9.51386 11.9382 9.48573C11.8284 9.42135 11.6859 9.3476 11.5153 9.30482C11.1401 9.21072 10.7332 9.29067 10.2949 9.62716L10.2781 9.64003L10.2627 9.65454C10.2155 9.69911 10.0428 9.84172 9.83066 9.96139C9.60076 10.0911 9.41961 10.1391 9.32045 10.1241C9.32128 10.1243 9.32102 10.1242 9.31961 10.1238C9.31295 10.1218 9.28051 10.112 9.21584 10.0794C9.14447 10.0435 9.05584 9.9911 8.95231 9.92308C8.7456 9.78726 8.50258 9.60443 8.25667 9.40662C7.7621 9.00879 7.28944 8.57767 7.11908 8.39921C7.09439 8.37336 7.06506 8.34282 7.03176 8.30817C6.80405 8.07115 6.39103 7.64125 6.01342 7.19579C5.79659 6.94 5.59977 6.68871 5.45938 6.47338C5.3891 6.36556 5.33845 6.27506 5.30665 6.20356C5.2782 6.1396 5.27435 6.11176 5.27391 6.11181C5.27381 6.11183 5.27388 6.1133 5.27388 6.11613C5.27388 5.89089 5.31025 5.79635 5.35726 5.71526C5.38733 5.66338 5.42806 5.6074 5.49259 5.52466C5.50636 5.50701 5.52125 5.48809 5.53708 5.46798C5.59135 5.39903 5.6567 5.316 5.7259 5.22161C5.73796 5.20516 5.75578 5.18396 5.79078 5.14286C5.82197 5.10624 5.86372 5.05722 5.90529 5.00261C5.9896 4.89189 6.08731 4.74079 6.14506 4.54691C6.26921 4.13008 6.17192 3.6551 5.76807 3.11285C5.58067 2.83578 5.35394 2.49418 5.12814 2.15399C4.81702 1.68525 4.50767 1.21917 4.30542 0.928227C4.04323 0.551074 3.68185 0.420914 3.36452 0.416733C3.07386 0.412903 2.81494 0.512772 2.6747 0.607415C2.64149 0.629822 2.57328 0.673231 2.48245 0.731037C2.37826 0.797346 2.2443 0.882601 2.09926 0.976835C1.85659 1.13449 1.55624 1.33399 1.42798 1.45319C1.31313 1.55993 1.16922 1.70763 1.06554 1.96032C0.966712 2.20121 0.916656 2.50656 0.916656 2.91895C0.916656 3.77795 1.24372 4.97994 2.03779 6.41957C2.94652 8.06708 4.30106 9.62263 5.10459 10.4068C5.87343 11.1831 7.34971 12.5188 8.91493 13.3796C10.8018 14.4173 11.652 14.5833 12.4775 14.5833C12.8791 14.5833 13.1869 14.5286 13.431 14.435C13.6812 14.339 13.8435 14.2101 13.96 14.0943C14.3462 13.711 14.6194 13.2754 14.7947 12.9425C14.883 12.7747 14.9483 12.6296 14.9919 12.5251C15.0138 12.4729 15.0303 12.4305 15.0416 12.4004C15.0432 12.3963 15.0447 12.3923 15.046 12.3886C15.0496 12.3789 15.0526 12.3709 15.0549 12.3646L15.0586 12.354L15.0598 12.3506L15.0602 12.3494C15.0602 12.3493 15.0605 12.3485 14.6663 12.2135ZM15.0605 12.3485L14.6663 12.2135L15.0824 12.2365L15.0791 12.2942L15.0605 12.3485Z" fill="#1B1B1F"/>
</svg>
