<svg width="21" height="16" viewBox="0 0 21 16" fill="none" xmlns="http://www.w3.org/2000/svg">
<path d="M10.2017 4.60494C6.64249 4.60494 3.74687 7.48349 3.74687 11.0218C3.74687 11.2418 3.92632 11.4202 4.14762 11.4202H8.65896C8.88027 11.4202 9.05972 11.2418 9.05972 11.0218C9.05972 10.3958 9.57203 9.88654 10.2017 9.88654C10.8314 9.88654 11.3437 10.3958 11.3437 11.0218C11.3437 11.2418 11.5232 11.4202 11.7445 11.4202H16.2558C16.4771 11.4202 16.6566 11.2418 16.6566 11.0218C16.6566 7.48349 13.7609 4.60494 10.2017 4.60494ZM12.1036 10.6234C11.9185 9.74857 11.136 9.08974 10.2017 9.08974C9.26747 9.08974 8.48497 9.74853 8.29978 10.6234H4.56241C4.76866 7.70963 7.21917 5.40174 10.2017 5.40174C13.1843 5.40174 15.6348 7.70967 15.841 10.6234H12.1036Z" fill="#005BFF"/>
<path d="M17.3146 3.9053C15.4147 2.01647 12.8887 0.976318 10.2017 0.976318C7.51481 0.976318 4.98878 2.01647 3.08889 3.90526C1.18889 5.79401 0.142578 8.30522 0.142578 10.9763V14.6253C0.142578 14.8453 0.322032 15.0237 0.543334 15.0237H19.8602C20.0815 15.0237 20.2609 14.8453 20.2609 14.6253V10.9763C20.2609 8.30522 19.2146 5.79401 17.3146 3.9053ZM19.4594 14.2269H0.94409V13.5968H15.0822C15.3035 13.5968 15.4829 13.4184 15.4829 13.1984C15.4829 12.9784 15.3035 12.8 15.0822 12.8H0.94409V11.3952H1.7122C1.9335 11.3952 2.11296 11.2168 2.11296 10.9968C2.11296 10.7768 1.9335 10.5984 1.7122 10.5984H0.952538C0.991871 9.63601 1.18013 8.7112 1.49573 7.8464L2.18934 8.13202C2.23952 8.15269 2.29147 8.16249 2.34255 8.16249C2.4998 8.16249 2.649 8.06987 2.71293 7.91644C2.79765 7.71311 2.70055 7.48011 2.49607 7.39593L1.80191 7.11007C2.20227 6.25394 2.73081 5.46862 3.36356 4.77921L3.88632 5.2989C3.96459 5.37667 4.06715 5.41558 4.1697 5.41558C4.27226 5.41558 4.37486 5.37663 4.45309 5.2989C4.6096 5.14331 4.6096 4.89104 4.45309 4.73542L3.92895 4.2144C4.61844 3.58183 5.40443 3.05198 6.26237 2.64925L6.54473 3.32687C6.60866 3.4803 6.75786 3.57292 6.91511 3.57292C6.96619 3.57292 7.01818 3.56312 7.06832 3.54245C7.27284 3.45827 7.3699 3.22519 7.28518 3.02194L7.0012 2.34038C7.86763 2.02206 8.79461 1.82921 9.75985 1.78394V2.51636C9.75985 2.73636 9.93931 2.91476 10.1606 2.91476C10.3819 2.91476 10.5614 2.73636 10.5614 2.51636V1.78081C11.5274 1.81769 12.456 2.00222 13.3248 2.31269L13.0423 2.99073C12.9576 3.19405 13.0547 3.42706 13.2592 3.51128C13.3094 3.5319 13.3614 3.54171 13.4124 3.54171C13.5697 3.54171 13.7189 3.44909 13.7829 3.29565L14.0666 2.61468C14.9283 3.00991 15.7192 3.53261 16.4141 4.15897L15.8923 4.67769C15.7358 4.83327 15.7358 5.08554 15.8923 5.24116C15.9706 5.31894 16.0731 5.35784 16.1757 5.35784C16.2782 5.35784 16.3808 5.31894 16.4591 5.24116L16.9839 4.71944C17.6229 5.40351 18.1589 6.18382 18.5667 7.03608L17.8759 7.32054C17.6714 7.40472 17.5743 7.6378 17.6591 7.84104C17.723 7.99448 17.8722 8.0871 18.0294 8.0871C18.0805 8.0871 18.1325 8.0773 18.1826 8.05663L18.8792 7.76979C19.2027 8.63218 19.3999 9.55522 19.4477 10.5168H18.6911C18.4698 10.5168 18.2904 10.6952 18.2904 10.9152C18.2904 11.1352 18.4698 11.3136 18.6911 11.3136H19.4594V14.2269Z" fill="#005BFF"/>
<path d="M16.8456 12.8H16.5175C16.2962 12.8 16.1168 12.9784 16.1168 13.1984C16.1168 13.4184 16.2962 13.5968 16.5175 13.5968H16.8456C17.0669 13.5968 17.2464 13.4184 17.2464 13.1984C17.2464 12.9784 17.067 12.8 16.8456 12.8Z" fill="#005BFF"/>
</svg>
