<svg width="16" height="15" viewBox="0 0 16 15" fill="none" xmlns="http://www.w3.org/2000/svg">
<path d="M14.0672 8.51977C14.4991 8.08783 14.71 7.48219 14.6397 6.8754L14.3695 4.54301C15.8606 3.46245 16.4787 1.64909 15.5857 0.756021C15.2043 0.374673 14.6084 0.250283 13.9508 0.414712C13.3683 0.560342 12.7709 0.917154 12.2687 1.41935C12.2625 1.42558 12.2567 1.43193 12.2506 1.43803L8.80274 1.03858C8.19594 0.968276 7.59028 1.17914 7.15834 1.61109L1.4139 7.35562C0.632862 8.13667 0.632867 9.40299 1.41391 10.184L5.4942 14.2643C6.27525 15.0454 7.54158 15.0454 8.32263 14.2643L14.0672 8.51977ZM14.1783 1.32487C14.5085 1.24235 14.7796 1.27677 14.9222 1.41935C15.2694 1.76652 14.9514 2.72917 14.2403 3.42876C14.2403 3.42876 14.2846 2.82318 14.1311 2.48576C13.9555 2.09998 13.3636 1.7183 13.3636 1.7183C13.6314 1.52873 13.9132 1.39115 14.1783 1.32487ZM7.84289 2.25343C8.05886 2.03746 8.36168 1.93203 8.66508 1.96718L11.5892 2.30595C11.446 2.55876 11.3381 2.81828 11.2711 3.07548C11.0893 2.89366 10.7933 2.89488 10.6114 3.0767C10.4283 3.25987 10.427 3.55808 10.6102 3.74126L11.9369 5.0681C12.1201 5.25131 12.4172 5.25131 12.6004 5.06811C12.7836 4.8849 12.7836 4.58786 12.6003 4.40467L12.2687 4.07304C12.1261 3.93046 12.0917 3.65935 12.1742 3.32915C12.2478 3.03471 12.4092 2.72001 12.6321 2.42668L12.7601 2.44157L13.2368 2.91826L13.7112 7.01316C13.7463 7.31656 13.6409 7.61938 13.4249 7.83535L7.61552 13.6447C7.225 14.0352 6.59183 14.0352 6.20131 13.6446L2.0336 9.47694C1.64308 9.08641 1.64308 8.45325 2.0336 8.06272L7.84289 2.25343Z" fill="#E0001B"/>
<path d="M5.17856 6.94115C4.40268 6.94115 3.77133 7.5725 3.77133 8.3485C3.77133 9.12438 4.40268 9.75572 5.17856 9.75572C5.95456 9.75572 6.58591 9.12438 6.58591 8.3485C6.58591 7.5725 5.95456 6.94115 5.17856 6.94115ZM5.17856 8.81749C4.91989 8.81749 4.70956 8.60704 4.70956 8.3485C4.70956 8.08983 4.91989 7.87938 5.17856 7.87938C5.43723 7.87938 5.64768 8.08983 5.64768 8.3485C5.64768 8.60704 5.43735 8.81749 5.17856 8.81749Z" fill="#E0001B"/>
<path d="M9.86949 9.75572C10.6455 9.75572 11.2768 9.12438 11.2768 8.3485C11.2768 7.5725 10.6455 6.94115 9.86949 6.94115C9.09348 6.94115 8.46225 7.5725 8.46225 8.3485C8.46225 9.12438 9.09348 9.75572 9.86949 9.75572ZM9.86949 7.87938C10.1282 7.87938 10.3386 8.08983 10.3386 8.3485C10.3386 8.60704 10.1282 8.81749 9.86949 8.81749C9.61082 8.81749 9.40037 8.60704 9.40037 8.3485C9.40037 8.08983 9.61082 7.87938 9.86949 7.87938Z" fill="#E0001B"/>
<path d="M7.45337 5.91961C7.49596 5.66408 7.73763 5.49145 7.99316 5.53402C8.24872 5.5766 8.42137 5.8183 8.37878 6.07385L7.5948 10.7775C7.5522 11.0331 7.31049 11.2057 7.05494 11.1631C6.7994 11.1205 6.62678 10.8788 6.66937 10.6233L7.45337 5.91961Z" fill="#E0001B"/>
</svg>
