<svg width="19" height="20" viewBox="0 0 19 20" fill="none" xmlns="http://www.w3.org/2000/svg">
<path d="M16.0584 13.675H10.7728V8.65266H11.1456C11.3313 8.65266 11.4927 8.52586 11.5355 8.34621L12.8944 2.65176C12.8944 2.65176 12.8944 2.6509 12.8944 2.65047C12.9012 2.62129 12.9052 2.59102 12.9052 2.5598C12.9052 1.14832 11.7501 0 10.3303 0H8.07246C6.65262 0 5.49751 1.14832 5.49751 2.5598C5.49751 2.59105 5.50148 2.62133 5.50831 2.65047C5.50831 2.65086 5.50831 2.65176 5.50831 2.65176L6.86717 8.34621C6.91 8.52586 7.07141 8.65266 7.25712 8.65266H7.62986V13.675H2.34427C1.27026 13.675 0.396484 14.5436 0.396484 15.6113V17.5233C0.396484 17.7434 0.575899 17.9217 0.79724 17.9217H2.11075V19.6016C2.11075 19.8216 2.29016 20 2.5115 20H15.8911C16.1124 20 16.2919 19.8216 16.2919 19.6016V17.9217H17.6054C17.8267 17.9217 18.0061 17.7433 18.0061 17.5233V15.6113C18.0062 14.5436 17.1324 13.675 16.0584 13.675ZM8.07242 0.796797H10.3302C11.1704 0.796797 11.8758 1.38047 12.058 2.16137H6.34468C6.5268 1.38047 7.23232 0.796797 8.07242 0.796797ZM7.57394 7.85586L6.40523 2.9582H11.9975L10.8288 7.85586H7.57394ZM8.43141 8.65266H9.97128V13.675H8.43141V8.65266ZM15.4904 19.2032H2.9123V17.9217H15.4904L15.4904 19.2032ZM17.2047 17.1249H1.19804V15.6113C1.19804 14.983 1.71227 14.4718 2.34431 14.4718H16.0584C16.6905 14.4718 17.2047 14.983 17.2047 15.6113V17.1249Z" fill="#005BFF"/>
<path d="M9.82831 15.8779H2.13504C1.9137 15.8779 1.73429 16.0563 1.73429 16.2763C1.73429 16.4964 1.9137 16.6747 2.13504 16.6747H9.82831C10.0496 16.6747 10.2291 16.4964 10.2291 16.2763C10.2291 16.0563 10.0496 15.8779 9.82831 15.8779Z" fill="#005BFF"/>
<path d="M11.4591 15.8779H11.1665C10.9451 15.8779 10.7657 16.0563 10.7657 16.2763C10.7657 16.4964 10.9451 16.6747 11.1665 16.6747H11.4591C11.6805 16.6747 11.8599 16.4964 11.8599 16.2763C11.8599 16.0563 11.6805 15.8779 11.4591 15.8779Z" fill="#005BFF"/>
</svg>
