<svg width="14" height="14" viewBox="0 0 14 14" fill="none" xmlns="http://www.w3.org/2000/svg">
<path d="M12.9999 0.333344H4.99992C4.82311 0.333344 4.65354 0.403581 4.52851 0.528606C4.40349 0.65363 4.33325 0.823199 4.33325 1.00001V3.66668H2.99992C2.82311 3.66668 2.65354 3.73691 2.52851 3.86194C2.40349 3.98696 2.33325 4.15653 2.33325 4.33334V7.00001H0.999919C0.823108 7.00001 0.653538 7.07025 0.528514 7.19527C0.40349 7.3203 0.333252 7.48987 0.333252 7.66668V13C0.333252 13.1768 0.40349 13.3464 0.528514 13.4714C0.653538 13.5964 0.823108 13.6667 0.999919 13.6667H6.33325C6.51006 13.6667 6.67963 13.5964 6.80466 13.4714C6.92968 13.3464 6.99992 13.1768 6.99992 13V11.6667H9.66659C9.8434 11.6667 10.013 11.5964 10.138 11.4714C10.263 11.3464 10.3333 11.1768 10.3333 11V9.66668H12.9999C13.1767 9.66668 13.3463 9.59644 13.4713 9.47141C13.5963 9.34639 13.6666 9.17682 13.6666 9.00001V1.00001C13.6666 0.823199 13.5963 0.65363 13.4713 0.528606C13.3463 0.403581 13.1767 0.333344 12.9999 0.333344ZM5.66659 12.3333H1.66659V8.33334H5.66659V12.3333ZM8.99992 10.3333H6.99992V7.66668C6.99992 7.48987 6.92968 7.3203 6.80466 7.19527C6.67963 7.07025 6.51006 7.00001 6.33325 7.00001H3.66659V5.00001H8.99992V10.3333ZM12.3333 8.33334H10.3333V4.33334C10.3333 4.15653 10.263 3.98696 10.138 3.86194C10.013 3.73691 9.8434 3.66668 9.66659 3.66668H5.66659V1.66668H12.3333V8.33334Z" fill="#323A92"/>
</svg>
