<svg width="14" height="14" viewBox="0 0 14 14" fill="none" xmlns="http://www.w3.org/2000/svg">
<path d="M6.99992 3.00001C6.82311 3.00001 6.65354 3.07025 6.52851 3.19527C6.40349 3.3203 6.33325 3.48987 6.33325 3.66668V10.3333C6.33325 10.5102 6.40349 10.6797 6.52851 10.8047C6.65354 10.9298 6.82311 11 6.99992 11C7.17673 11 7.3463 10.9298 7.47132 10.8047C7.59635 10.6797 7.66659 10.5102 7.66659 10.3333V3.66668C7.66659 3.48987 7.59635 3.3203 7.47132 3.19527C7.3463 3.07025 7.17673 3.00001 6.99992 3.00001ZM3.66659 7.00001C3.48977 7.00001 3.32021 7.07025 3.19518 7.19527C3.07016 7.3203 2.99992 7.48987 2.99992 7.66668V10.3333C2.99992 10.5102 3.07016 10.6797 3.19518 10.8047C3.32021 10.9298 3.48977 11 3.66659 11C3.8434 11 4.01297 10.9298 4.13799 10.8047C4.26301 10.6797 4.33325 10.5102 4.33325 10.3333V7.66668C4.33325 7.48987 4.26301 7.3203 4.13799 7.19527C4.01297 7.07025 3.8434 7.00001 3.66659 7.00001ZM10.3333 5.66668C10.1564 5.66668 9.98687 5.73692 9.86185 5.86194C9.73682 5.98696 9.66659 6.15653 9.66659 6.33334V10.3333C9.66659 10.5102 9.73682 10.6797 9.86185 10.8047C9.98687 10.9298 10.1564 11 10.3333 11C10.5101 11 10.6796 10.9298 10.8047 10.8047C10.9297 10.6797 10.9999 10.5102 10.9999 10.3333V6.33334C10.9999 6.15653 10.9297 5.98696 10.8047 5.86194C10.6796 5.73692 10.5101 5.66668 10.3333 5.66668ZM11.6666 0.333344H2.33325C1.80282 0.333344 1.29411 0.544057 0.919038 0.91913C0.543966 1.2942 0.333252 1.80291 0.333252 2.33334V11.6667C0.333252 12.1971 0.543966 12.7058 0.919038 13.0809C1.29411 13.456 1.80282 13.6667 2.33325 13.6667H11.6666C12.197 13.6667 12.7057 13.456 13.0808 13.0809C13.4559 12.7058 13.6666 12.1971 13.6666 11.6667V2.33334C13.6666 1.80291 13.4559 1.2942 13.0808 0.91913C12.7057 0.544057 12.197 0.333344 11.6666 0.333344ZM12.3333 11.6667C12.3333 11.8435 12.263 12.0131 12.138 12.1381C12.013 12.2631 11.8434 12.3333 11.6666 12.3333H2.33325C2.15644 12.3333 1.98687 12.2631 1.86185 12.1381C1.73682 12.0131 1.66659 11.8435 1.66659 11.6667V2.33334C1.66659 2.15653 1.73682 1.98696 1.86185 1.86194C1.98687 1.73691 2.15644 1.66668 2.33325 1.66668H11.6666C11.8434 1.66668 12.013 1.73691 12.138 1.86194C12.263 1.98696 12.3333 2.15653 12.3333 2.33334V11.6667Z" fill="#323A92"/>
</svg>
