<svg width="21" height="16" viewBox="0 0 21 16" fill="none" xmlns="http://www.w3.org/2000/svg">
<path d="M19.8602 6.44555H13.6383C13.3404 5.32871 12.6451 4.34227 11.6685 3.6827V1.8073C11.6685 1.66438 11.5914 1.53242 11.4666 1.46145C10.3286 0.81457 9.03107 0.472656 7.71446 0.472656C3.53928 0.472617 0.142578 3.84941 0.142578 8C0.142578 12.1506 3.53928 15.5274 7.7145 15.5274H14.0458C17.4728 15.5274 20.2609 12.7557 20.2609 9.34875V6.84398C20.2609 6.62394 20.0815 6.44555 19.8602 6.44555ZM16.9018 8.91219C16.4817 10.7745 14.8131 12.1294 12.8505 12.1294C12.3427 12.1294 11.8429 12.0368 11.3739 11.8594C12.4933 11.2141 13.3077 10.1472 13.6377 8.91219H16.9018ZM12.9989 7.67883C12.9989 9.30926 12.002 10.7816 10.499 11.4032C9.91051 11.0005 9.43651 10.4544 9.12294 9.82273C10.1989 9.72047 11.0433 8.81711 11.0433 7.72109C11.0433 6.72859 10.3508 5.89434 9.42095 5.66957C9.83978 5.06117 10.4159 4.5732 11.0907 4.25914C12.2724 4.99437 12.9989 6.28695 12.9989 7.67883ZM8.49358 5.65223C7.5257 5.84875 6.79527 6.70172 6.79527 7.72109C6.79527 8.63512 7.38259 9.41508 8.20162 9.70832C8.48183 10.461 8.9449 11.134 9.5437 11.6678C9.34538 11.6972 9.14455 11.712 8.942 11.712C6.70497 11.712 4.88501 9.90269 4.88501 7.67883C4.88501 5.455 6.70497 3.64574 8.942 3.64574C9.36759 3.64574 9.79007 3.71269 10.1923 3.84219C9.48413 4.28996 8.89803 4.9118 8.49358 5.65223ZM10.2418 7.72113C10.2418 8.44605 9.64854 9.03586 8.91932 9.03586C8.19011 9.03586 7.59682 8.44605 7.59682 7.72113C7.59682 6.99621 8.19011 6.40641 8.91932 6.40641C9.64854 6.40641 10.2418 6.99617 10.2418 7.72113ZM19.4594 9.34871C19.4594 12.3162 17.0309 14.7305 14.0458 14.7305H7.7145C3.98129 14.7305 0.944129 11.7112 0.944129 8C0.944129 4.28879 3.98129 1.26945 7.7145 1.26945C8.81465 1.26945 9.89954 1.53625 10.867 2.04301V3.24434C10.2615 2.98461 9.60492 2.84895 8.942 2.84895C6.26299 2.84895 4.08349 5.01562 4.08349 7.67883C4.08349 10.3421 6.26299 12.5087 8.942 12.5087C9.44161 12.5087 9.93314 12.4332 10.406 12.2846C11.1496 12.7046 11.9907 12.9262 12.8506 12.9262C15.2531 12.9262 17.2866 11.2243 17.7203 8.91219H19.4594V9.34871ZM19.4594 8.11539H13.8005V7.24238H19.4594V8.11539Z" fill="#005BFF"/>
<path d="M14.7705 13.5777H9.48041C9.25907 13.5777 9.07966 13.7561 9.07966 13.9761C9.07966 14.1961 9.25907 14.3745 9.48041 14.3745H14.7705C14.9918 14.3745 15.1713 14.1961 15.1713 13.9761C15.1713 13.7561 14.9918 13.5777 14.7705 13.5777Z" fill="#005BFF"/>
<path d="M8.03763 13.5777H7.79716C7.57582 13.5777 7.3964 13.7561 7.3964 13.9761C7.3964 14.1961 7.57582 14.3745 7.79716 14.3745H8.03763C8.25897 14.3745 8.43839 14.1961 8.43839 13.9761C8.43843 13.7561 8.25893 13.5777 8.03763 13.5777Z" fill="#005BFF"/>
</svg>
